<svg xmlns="http://www.w3.org/2000/svg" height="450.07999px" width="377.95279px" version="1.1" viewBox="0 0 377.95277 450.07997">
	<path fill="#ffffff" d="m34.293466 243.72906c2.954667 0 5.273333-.53467 6.954666-1.608 1.68-1.072 2.52-2.73867 2.52-4.99867v-.17333c0-2.028-.781333-3.636-2.346666-4.82533-1.565334-1.18667-4.085333-1.78133-7.562667-1.78133h-15.473333v13.38666zm-3.564-24.51333c2.954667 0 5.302667-.50667 7.041333-1.52133 1.738667-1.01334 2.606667-2.65067 2.606667-4.91067v-.17333c0-2.028-.752-3.57734-2.26-4.652-1.506667-1.07067-3.68-1.608-6.518667-1.608h-13.213333v12.86533zm-25.3826661-24.6h28.1999991c7 0 12.292 1.79733 15.88 5.39067 2.776 2.78 4.164 6.22933 4.164 10.34266v.17467c0 1.73733-.216 3.27467-.648 4.60667-.432 1.33333-1.008 2.536-1.728 3.608-.72 1.07333-1.553333 2.01466-2.504 2.824-.950667.81333-1.973333 1.508-3.065333 2.08666 3.517333 1.33334 6.286666 3.144 8.306666 5.43334 2.018667 2.28933 3.029333 5.46266 3.029333 9.51866v.17333c0 2.78134-.534666 5.21467-1.605333 7.30134-1.070667 2.08666-2.604 3.82533-4.6 5.216-1.997333 1.39066-4.398666 2.43466-7.204 3.12933-2.806666.696-5.914666 1.04267-9.327999 1.04267h-28.8973331z"/>
	<path fill="#ffffff" d="m121.13133 224.17053c3.304 0 5.83733-.78133 7.60666-2.34667 1.76534-1.56533 2.65067-3.65066 2.65067-6.25866v-.17334c0-2.89733-.928-5.07066-2.78267-6.52-1.85466-1.448-4.432-2.17333-7.73466-2.17333h-13.30134v17.472zm-26.946666-29.55467h27.815996c7.70667 0 13.61733 2.05734 17.732 6.172 3.47733 3.47734 5.216 8.11334 5.216 13.908v.17334c0 4.92666-1.20267 8.94-3.60667 12.04-2.40533 3.1-5.55066 5.37599-9.432 6.82399l14.864 21.73067h-15.64533l-13.04-19.47067h-10.51867v19.47067h-13.385326z"/>
	<path fill="#ffffff" d="m183.71679 194.61546h13.38667v60.848h-13.38667z"/>
	<path fill="#ffffff" d="m266.90612 256.50773c-4.464 0-8.60666-.812-12.43066-2.43467-3.824-1.62133-7.128-3.83867-9.90934-6.64933-2.78266-2.81067-4.956-6.128-6.52-9.95334-1.564-3.824-2.34666-7.90933-2.34666-12.25599v-.17467c0-4.34533.78266-8.416 2.34666-12.212 1.564-3.79467 3.73734-7.128 6.52-9.99733 2.78134-2.86934 6.11334-5.128 9.996-6.78 3.88134-1.652 8.172-2.47734 12.86534-2.47734 2.83866 0 5.43333.232 7.78.69467 2.34666.464 4.47733 1.10133 6.38933 1.912 1.912.81333 3.67867 1.79867 5.30267 2.956 1.62133 1.16 3.12933 2.43467 4.52 3.82533l-8.51867 9.82267c-2.37733-2.14267-4.79733-3.82533-7.25867-5.04133-2.464-1.21734-5.23066-1.82534-8.30133-1.82534-2.55067 0-4.91067.492-7.084 1.47734-2.17333.98533-4.04267 2.34666-5.60667 4.08533-1.56533 1.73867-2.78133 3.752-3.652 6.04133-.86933 2.29067-1.30266 4.73734-1.30266 7.34534v.17333c0 2.608.43333 5.072 1.30266 7.38933.87067 2.31867 2.072 4.34667 3.60667 6.084 1.536 1.73867 3.39067 3.116 5.564 4.12933 2.17333 1.01467 4.564 1.52134 7.172 1.52134 3.47733 0 6.41733-.63734 8.82267-1.912 2.404-1.27334 4.79466-3.01334 7.172-5.216l8.51866 8.60666c-1.56533 1.68-3.188 3.18667-4.868 4.51867-1.68133 1.33467-3.52133 2.47867-5.52 3.43467-1.99866.956-4.188 1.68133-6.56266 2.17333-2.37734.49067-5.04134.73867-7.99734.73867"/>
	<path fill="#ffffff" d="m350.35399 256.33333c-4.63733 0-9.18533-.79734-13.64667-2.38934-4.46266-1.59466-8.51866-4.04266-12.16933-7.34666l7.90933-9.47467c2.78134 2.26 5.636 4.05733 8.56267 5.38933 2.92667 1.33334 6.12933 2 9.60533 2 2.78133 0 4.94-.50666 6.476-1.52133 1.53467-1.01333 2.30267-2.41867 2.30267-4.216v-.17333c0-.86934-.16-1.63734-.47867-2.304-.32-.66534-.92933-1.28934-1.83067-1.86934-.9-.57866-2.14933-1.15866-3.748-1.73866-1.59733-.57867-3.67599-1.18667-6.23199-1.82533-3.08-.752-5.868-1.59334-8.36667-2.52134-2.49867-.92533-4.62-2.07066-6.36133-3.432-1.744-1.36133-3.096-3.056-4.05334-5.08533-.95866-2.028-1.44-4.54933-1.44-7.564v-.17333c0-2.78134.51867-5.28667 1.55467-7.51867 1.03733-2.23067 2.49067-4.15733 4.36133-5.78133 1.87067-1.62134 4.10534-2.868 6.704-3.73734 2.59734-.86933 5.46267-1.304 8.592-1.304 4.46 0 8.56133.66667 12.29867 2 3.73866 1.33334 7.172 3.24534 10.30133 5.736l-6.95467 10.084c-2.724-1.85333-5.38933-3.31733-7.99733-4.38933-2.60667-1.072-5.21466-1.608-7.82266-1.608s-4.564.508-5.868 1.52c-1.304 1.01467-1.95467 2.276-1.95467 3.78133v.17467c0 .98533.188 1.84.56533 2.564.37867.72533 1.05867 1.37733 2.04934 1.956.98666.58 2.33733 1.12933 4.05333 1.652 1.71333.52133 3.87733 1.12933 6.492 1.82533 3.07866.812 5.824 1.72534 8.236 2.73734 2.412 1.01466 4.444 2.232 6.10266 3.652 1.65467 1.42 2.904 3.08533 3.74667 4.99733.84133 1.912 1.264 4.20266 1.264 6.868v.17333c0 3.01333-.548 5.69333-1.64 8.04-1.09467 2.348-2.62 4.31867-4.57867 5.912-1.95733 1.59467-4.29333 2.81067-7.00666 3.65067-2.716.84-5.72267 1.26-9.028 1.26"/>
	<path fill="#284693" d="m109.17959 420.69919c-16.226659 0-29.381325-13.15467-29.381325-29.38133v-88.14267c0-16.22666 13.154666-29.38 29.381325-29.38 16.22667 0 29.38134 13.15334 29.38134 29.38v88.14267c0 16.22666-13.15467 29.38133-29.38134 29.38133"/>
	<path fill="#f9b234" d="m188.97773 391.31826c-16.22667 0-29.38134-13.15467-29.38134-29.38133v-58.76134c0-16.22666 13.15467-29.38133 29.38134-29.38133 16.22666 0 29.38 13.15467 29.38 29.38133v58.76134c0 16.22666-13.15334 29.38133-29.38 29.38133"/>
	<path fill="#e7332a" d="m268.77452 361.93746c-16.22666 0-29.38-13.15467-29.38-29.38133v-29.38c0-16.22667 13.15334-29.38134 29.38-29.38134 16.22667 0 29.38134 13.15467 29.38134 29.38134v29.38c0 16.22666-13.15467 29.38133-29.38134 29.38133"/>
	<path fill="#ffde00" d="m348.57279 332.55653c-16.22667 0-29.38133-13.15467-29.38133-29.38134 0-16.22666 13.15466-29.38 29.38133-29.38 16.22666 0 29.38 13.15334 29.38 29.38 0 16.22667-13.15334 29.38134-29.38 29.38134"/>
	<path fill="#009641" d="m29.381999 450.07999c-16.226666 0-29.38133234-13.15467-29.38133234-29.38133v-117.52267c0-16.22666 13.15466634-29.38133 29.38133234-29.38133 16.226667 0 29.381333 13.15467 29.381333 29.38133v117.52267c0 16.22666-13.154666 29.38133-29.381333 29.38133"/>
	<path fill="#e7332a" d="m268.77452 29.380799c16.22667 0 29.38134 13.154666 29.38134 29.381333v88.142668c0 16.22666-13.15467 29.38-29.38134 29.38-16.22666 0-29.38-13.15334-29.38-29.38v-88.142668c0-16.226667 13.15334-29.381333 29.38-29.381333"/>
	<path fill="#f9b234" d="m188.97773 58.761732c16.22666 0 29.38 13.154666 29.38 29.381332v58.761336c0 16.22666-13.15334 29.38133-29.38 29.38133-16.22667 0-29.38134-13.15467-29.38134-29.38133v-58.761336c0-16.226666 13.15467-29.381332 29.38134-29.381332"/>
	<path fill="#284693" d="m109.17959 88.142531c16.22667 0 29.38134 13.154669 29.38134 29.381329v29.38c0 16.228-13.15467 29.38134-29.38134 29.38134-16.226659 0-29.381325-13.15334-29.381325-29.38134v-29.38c0-16.22666 13.154666-29.381329 29.381325-29.381329"/>
	<path fill="#009641" d="m29.381333 117.52346c16.226666 0 29.381332 13.15467 29.381332 29.38134 0 16.22666-13.154666 29.38-29.381332 29.38-16.226667 0-29.381333-13.15334-29.381333-29.38 0-16.22667 13.154666-29.38134 29.381333-29.38134"/>
	<path fill="#ffde00" d="m348.57279 0c16.22666 0 29.38 13.154666 29.38 29.381332v117.522668c0 16.228-13.15334 29.38133-29.38 29.38133-16.22667 0-29.38133-13.15333-29.38133-29.38133v-117.522668c0-16.226666 13.15466-29.381332 29.38133-29.381332"/>
</svg>
