<svg xmlns="http://www.w3.org/2000/svg" version="1.1" y="0px" x="0px" viewBox="0 0 214.367 214.367">
	<path fill="#1d1d1b" d="m201.94933 95.219994c0 46.312006-33.237 85.002006-77.109 93.484006v25.663l-69.759997-40 69.759997-40v23.494c27.176-7.87 47.109-32.964 47.109-62.642006 0-35.962-29.258-65.22-65.22-65.22-35.961997 0-65.219997 29.258-65.219997 65.22 0 9.686006 2.068 19.001006 6.148 27.688006l-27.154 12.754c-5.968-12.707-8.994-26.313-8.994-40.441006.0010-52.504 42.717-95.22000054 95.220997-95.22000054 52.504 0 95.219 42.71600054 95.219 95.22000054z"/>
</svg>
