<svg xmlns="http://www.w3.org/2000/svg" height="542.17065px" width="380.64532px" version="1.1" viewBox="0 0 380.64531 542.17063">
	<path d="m35.63933 243.7292c2.954666 0 5.271999-.53467 6.953333-1.608 1.681333-1.072 2.521333-2.73867 2.521333-4.99867v-.17333c0-2.02667-.781333-3.636-2.348-4.824-1.564-1.188-4.084-1.78267-7.561333-1.78267h-15.473333v13.38667zm-3.564-24.51333c2.954666 0 5.302666-.50667 7.041333-1.52 1.738666-1.01334 2.606666-2.652 2.606666-4.912v-.17334c0-2.028-.753333-3.57733-2.259999-4.65066-1.508-1.072-3.681334-1.608-6.518667-1.608h-13.213333v12.864zm-25.3826663-24.6h28.1999993c6.998666 0 12.292 1.79733 15.88 5.38933 2.775999 2.78267 4.163999 6.23067 4.163999 10.34533v.17334c0 1.73733-.216 3.27466-.648 4.60666-.432 1.33467-1.007999 2.536-1.727999 3.608-.72 1.07334-1.553334 2.01467-2.504 2.82534-.950667.812-1.973334 1.50666-3.065334 2.08533 3.517334 1.33333 6.286667 3.14533 8.306667 5.43333 2.018666 2.28934 3.029333 5.46267 3.029333 9.51867v.17333c0 2.78133-.536 5.21467-1.605333 7.30267-1.070667 2.08533-2.604 3.824-4.601333 5.21466-1.996 1.39067-4.397334 2.43467-7.202667 3.12934-2.806667.696-5.914666 1.044-9.328 1.044h-28.8973323z" stroke-width="1.33333325" fill="#ffffff"/>
	<path d="m122.47719 224.17053c3.30267 0 5.83734-.78133 7.60667-2.34666 1.76533-1.56534 2.65067-3.65067 2.65067-6.25867v-.17333c0-2.89734-.928-5.07067-2.78267-6.52-1.85467-1.448-4.432-2.17334-7.73467-2.17334h-13.30133v17.472zm-26.946662-29.55466h27.816002c7.70666 0 13.61733 2.05866 17.732 6.172 3.47733 3.47733 5.216 8.11466 5.216 13.90933v.172c0 4.928-1.20267 8.94-3.60667 12.04-2.40533 3.10133-5.55067 5.376-9.43333 6.824l14.86533 21.732h-15.64533l-13.04-19.472h-10.51867v19.472h-13.385332z" stroke-width="1.33333325" fill="#ffffff"/>
	<path d="m185.06373 194.61573h13.38666v60.84933h-13.38666z" stroke-width="1.33333325" fill="#ffffff"/>
	<path d="m268.25186 256.50786c-4.464 0-8.60667-.812-12.43067-2.43333-3.82533-1.62267-7.128-3.83867-9.90933-6.64933-2.78267-2.812-4.956-6.12934-6.52-9.95467-1.564-3.824-2.34667-7.90933-2.34667-12.256v-.17466c0-4.34534.78267-8.416 2.34667-12.21334 1.564-3.79333 3.73733-7.12666 6.52-9.996 2.78133-2.868 6.11333-5.128 9.996-6.78 3.88133-1.652 8.172-2.47733 12.86533-2.47733 2.83867 0 5.432.23333 7.78.69467 2.34667.46533 4.476 1.10133 6.38933 1.91333 1.912.812 3.67867 1.79733 5.30267 2.956 1.62 1.15867 3.128 2.43333 4.52 3.824l-8.51867 9.82267c-2.37733-2.14267-4.79733-3.824-7.25866-5.04134-2.464-1.21733-5.23067-1.82533-8.30134-1.82533-2.55066 0-4.912.49333-7.08533 1.47733-2.17333.98534-4.04133 2.34667-5.60533 4.08534-1.56534 1.73866-2.78267 3.75333-3.652 6.04133-.86934 2.29067-1.304 4.73733-1.304 7.34533v.17334c0 2.608.43466 5.072 1.304 7.38933.86933 2.31866 2.072 4.34533 3.60666 6.08533 1.536 1.73867 3.39067 3.116 5.564 4.12933 2.17334 1.01334 4.564 1.52 7.172 1.52 3.47734 0 6.41734-.636 8.82267-1.912 2.404-1.27333 4.79467-3.012 7.172-5.216l8.51867 8.60667c-1.564 1.68-3.188 3.18667-4.868 4.51867-1.68134 1.33466-3.52134 2.47866-5.52 3.43333-2 .95733-4.188 1.68267-6.56267 2.17333-2.37733.492-5.04133.74-7.99733.74" stroke-width="1.33333325" fill="#ffffff"/>
	<path d="m351.69986 256.33333c-4.63734 0-9.18534-.79733-13.64667-2.39067-4.464-1.592-8.52-4.04133-12.16933-7.34533l7.90933-9.47467c2.78267 2.26 5.63467 4.05734 8.56267 5.39067 2.92533 1.33333 6.128 1.99867 9.60533 1.99867 2.78133 0 4.94-.50667 6.476-1.52134 1.53466-1.01333 2.304-2.41866 2.304-4.216v-.17333c0-.86933-.16134-1.636-.48-2.304-.32-.66533-.93067-1.28933-1.832-1.86933-.89867-.57734-2.148-1.15867-3.74667-1.73734-1.59733-.58-3.676-1.18799-6.232-1.82666-3.08-.752-5.868-1.59333-8.36666-2.52-2.49867-.92667-4.62-2.072-6.36267-3.43333-1.744-1.36134-3.09467-3.056-4.052-5.08667-.96-2.02667-1.44-4.548-1.44-7.56267v-.17333c0-2.78267.51867-5.28667 1.55467-7.51867 1.03733-2.23066 2.49066-4.15733 4.36133-5.78 1.872-1.62266 4.10533-2.86933 6.704-3.73866 2.59733-.86934 5.46133-1.30267 8.59067-1.30267 4.46133 0 8.56266.66667 12.29999 1.99867 3.73867 1.33466 7.172 3.24533 10.30134 5.736l-6.95467 10.084c-2.724-1.85467-5.38933-3.31734-7.99733-4.38934s-5.216-1.608-7.82267-1.608c-2.608 0-4.564.508-5.868 1.52-1.304 1.01467-1.956 2.27467-1.956 3.78134v.17466c0 .98534.18934 1.84.56667 2.564.37733.72534 1.05867 1.37734 2.048 1.956.988.58 2.33867 1.12934 4.05333 1.652 1.71467.52134 3.87734 1.12934 6.49333 1.82534 3.07867.812 5.824 1.724 8.236 2.73866 2.412 1.01467 4.444 2.23067 6.10134 3.65067 1.656 1.42133 2.90533 3.08533 3.748 4.99733.84133 1.91333 1.264 4.20267 1.264 6.868v.17333c0 3.01334-.54667 5.69334-1.64134 8.04134-1.09466 2.34666-2.61866 4.31733-4.576 5.90933-1.95866 1.596-4.29466 2.81333-7.008 3.652-2.716.84-5.724 1.26-9.02799 1.26" stroke-width="1.33333325" fill="#ffffff"/>
	<path d="m110.52533 420.69919c-16.226669 0-29.381335-13.15333-29.381335-29.38v-88.14399c0-16.22667 13.154666-29.38 29.381335-29.38 16.22666 0 29.38133 13.15333 29.38133 29.38v88.14399c0 16.22667-13.15467 29.38-29.38133 29.38" stroke-width="1.33333325" fill="#284693"/>
	<path d="m190.32279 391.31906c-16.22666 0-29.38133-13.15467-29.38133-29.38133v-58.76133c0-16.22667 13.15467-29.38134 29.38133-29.38134 16.22667 0 29.38134 13.15467 29.38134 29.38134v58.76133c0 16.22666-13.15467 29.38133-29.38134 29.38133" stroke-width="1.33333325" fill="#f9b234"/>
	<path d="m270.12039 361.93746c-16.22667 0-29.38133-13.15333-29.38133-29.38v-29.38133c0-16.22667 13.15466-29.38 29.38133-29.38s29.38133 13.15333 29.38133 29.38v29.38133c0 16.22667-13.15466 29.38-29.38133 29.38" stroke-width="1.33333325" fill="#e7332a"/>
	<path d="m349.91852 332.55733c-16.22666 0-29.38133-13.15467-29.38133-29.38133 0-16.22667 13.15467-29.38 29.38133-29.38 16.22667 0 29.38133 13.15333 29.38133 29.38 0 16.22666-13.15466 29.38133-29.38133 29.38133" stroke-width="1.33333325" fill="#ffde00"/>
	<path d="m30.727196 450.08079c-16.226666 0-29.3813322-13.15466-29.3813322-29.38133v-117.524c0-16.22666 13.1546662-29.38 29.3813322-29.38 16.226667 0 29.381333 13.15334 29.381333 29.38v117.524c0 16.22667-13.154666 29.38133-29.381333 29.38133" stroke-width="1.33333325" fill="#009641"/>
	<path d="m270.12039 29.38147c16.22667 0 29.38133 13.153333 29.38133 29.379999v88.144001c0 16.22666-13.15466 29.38-29.38133 29.38s-29.38133-13.15334-29.38133-29.38v-88.144001c0-16.226666 13.15466-29.379999 29.38133-29.379999" stroke-width="1.33333325" fill="#e7332a"/>
	<path d="m190.32279 58.761736c16.22667 0 29.38134 13.154666 29.38134 29.381333v58.761331c0 16.22667-13.15467 29.38133-29.38134 29.38133-16.22666 0-29.38133-13.15466-29.38133-29.38133v-58.761331c0-16.226667 13.15467-29.381333 29.38133-29.381333" stroke-width="1.33333325" fill="#f9b234"/>
	<path d="m110.52533 88.143202c16.22666 0 29.38133 13.153328 29.38133 29.379998v29.38133c0 16.22667-13.15467 29.38-29.38133 29.38-16.226669 0-29.381335-13.15333-29.381335-29.38v-29.38133c0-16.22667 13.154666-29.379998 29.381335-29.379998" stroke-width="1.33333325" fill="#284693"/>
	<path d="m30.727196 117.52347c16.226667 0 29.381333 13.15466 29.381333 29.38133s-13.154666 29.38-29.381333 29.38c-16.226666 0-29.3813322-13.15333-29.3813322-29.38s13.1546662-29.38133 29.3813322-29.38133" stroke-width="1.33333325" fill="#009641"/>
	<path d="m349.91786.00000413406c16.22666 0 29.38133 13.15466587 29.38133 29.38133287v117.523993c0 16.22667-13.15467 29.38-29.38133 29.38-16.22667 0-29.38134-13.15333-29.38134-29.38v-117.523993c0-16.226667 13.15467-29.38133287 29.38134-29.38133287" stroke-width="1.33333325" fill="#ffde00"/>
	<path d="m-.00000282964 486.19146v-.0747c0-7.42933 5.56266653-13.51333 13.47599983-13.51333 4.817333 0 7.728 1.67867 10.229333 4.068l-2.949333 3.39733c-2.089334-1.94133-4.330667-3.24666-7.316-3.24666-4.9666667 0-8.6253333 4.10666-8.6253333 9.22133v.0733c0 5.11467 3.6213333 9.26 8.6253333 9.26 3.209333 0 5.262666-1.26933 7.504-3.36133l2.949333 2.98667c-2.725333 2.83733-5.712 4.62933-10.602666 4.62933-7.6160003 0-13.29066683-5.936-13.29066683-13.44" stroke-width="1.33333325" fill="#ffffff"/>
	<path d="m34.046396 473.05039h4.592v26.13333h-4.592z" stroke-width="1.33333325" fill="#ffffff"/>
	<path d="m50.697863 473.05079h4.255999l14 18.06934v-18.06934h4.517333v26.13333h-3.845333l-14.409333-18.59199v18.59199h-4.518666z" stroke-width="1.33333325" fill="#ffffff"/>
	<path d="m85.268128 473.05079h19.376002v4.10667h-14.784002v6.79467h13.104002v4.10666h-13.104002v7.01867h14.972002v4.10666h-19.564002z" stroke-width="1.33333325" fill="#ffffff"/>
	<path d="m129.03773 473.05079h19.452v4.18134h-14.86v7.13066h13.17866v4.18134h-13.17866v10.63999h-4.592z" stroke-width="1.33333325" fill="#ffffff"/>
	<path d="m158.60666 473.05079h19.376v4.10667h-14.784v6.79467h13.104v4.10666h-13.104v7.01867h14.972v4.10666h-19.564z" stroke-width="1.33333325" fill="#ffffff"/>
	<path d="m186.94266 495.37639 2.76267-3.28533c2.50133 2.16533 5.04 3.39733 8.25066 3.39733 2.83734 0 4.628-1.344 4.628-3.28533v-.076c0-1.86533-1.044-2.87333-5.89733-3.99467-5.56267-1.34266-8.69867-2.98533-8.69867-7.80133v-.0747c0-4.48 3.73334-7.57866 8.92267-7.57866 3.808 0 6.832 1.15733 9.48267 3.284l-2.464 3.47333c-2.352-1.75467-4.704-2.68933-7.09334-2.68933-2.688 0-4.256 1.38133-4.256 3.1v.0747c0 2.016 1.19467 2.912 6.23467 4.10534 5.52533 1.34533 8.36267 3.32266 8.36267 7.65466v.0747c0 4.89067-3.84534 7.80266-9.33334 7.80266-3.99466 0-7.76533-1.38133-10.90133-4.18133" stroke-width="1.33333325" fill="#ffffff"/>
	<path d="m223.52986 477.30733h-8.288v-4.256h21.20533v4.256h-8.288v21.87599h-4.62933z" stroke-width="1.33333325" fill="#ffffff"/>
	<path d="m258.14839 492.75919 11.52933-8.80133c2.86134-2.244 4.00534-3.696 4.00534-5.54533 0-1.98-1.364-3.168-3.476-3.168-2.06934 0-3.69734 1.232-6.11734 4.004l-5.76533-4.796c3.3-4.26934 6.60133-6.60134 12.54267-6.60134 6.73333 0 11.35333 4.004 11.35333 9.81467v.0867c0 4.928-2.552 7.48133-7.12933 10.78133l-5.28134 3.69733h12.71867v6.952h-24.38z" stroke-width="1.33333325" fill="#ffffff"/>
	<path d="m312.00772 483.86986v-.088c0-4.92933-2.28933-8.49333-5.72133-8.49333-3.388 0-5.63333 3.476-5.63333 8.40533v.088c0 4.92933 2.288 8.44933 5.72133 8.44933s5.63333-3.47733 5.63333-8.36133m-19.93466 0v-.088c0-8.71333 5.544-16.01867 14.30133-16.01867s14.21467 7.21734 14.21467 15.93067v.088c0 8.71333-5.50134 16.01733-14.30267 16.01733-8.75733 0-14.21333-7.216-14.21333-15.92933" stroke-width="1.33333325" fill="#ffffff"/>
	<path d="m335.01692 476.08079-5.19333 1.232-1.628-6.6 9.02133-2.55333h6.20534v31.024h-8.40534z" stroke-width="1.33333325" fill="#ffffff"/>
	<path d="m371.40612 478.67706v-.088c0-2.37733-1.716-4.224-4.40133-4.224-2.68267 0-4.312 1.80267-4.312 4.18v.088c0 2.332 1.716 4.048 4.40133 4.048 2.68267 0 4.312-1.75867 4.312-4.004m-.088 7.61333c-1.892 1.76-4.13733 2.508-6.556 2.508-5.94133 0-10.34267-3.74133-10.34267-9.76933v-.088c0-6.77733 5.236-11.17867 12.27867-11.17867 4.488 0 7.128 1.23334 9.46 3.56534 2.24533 2.244 3.69733 5.76533 3.69733 11.44133v.0893c0 10.032-5.01733 16.94133-14.21466 16.94133-4.62 0-7.92134-1.45199-10.78134-3.65199l4.00534-5.89734c2.156 1.67334 4.18 2.464 6.6 2.464 4.48933 0 5.63333-3.96 5.85333-6.424" stroke-width="1.33333325" fill="#ffffff"/>
	<path d="m.19786383 523.17972h3.03999997l10.0013332 12.91067v-12.91067h3.228v18.67067h-2.746667l-10.2959996-13.28267v13.28267h-3.22666657z" stroke-width="1.33333325" fill="#ffffff"/>
	<path d="m31.450396 523.17972h3.281334v18.67067h-3.281334z" stroke-width="1.33333325" fill="#ffffff"/>
	<path d="m54.304662 526.22012h-5.921333v-3.04h15.149333v3.04h-5.921333v15.63067h-3.306667z" stroke-width="1.33333325" fill="#ffffff"/>
	<path d="m76.997329 523.17972h13.842666v2.93334h-10.562667v4.856h9.361334v2.93333h-9.361334v5.01467h10.694667v2.93333h-13.974666z" stroke-width="1.33333325" fill="#ffffff"/>
	<path d="m112.94519 532.43492c2.348 0 3.84134-1.22666 3.84134-3.12v-.0533c0-2.00133-1.44-3.09467-3.868-3.09467h-4.77467v6.268zm-8.08133-9.25466h8.32267c2.34533 0 4.18666.69333 5.388 1.86666.98533 1.01334 1.54666 2.40134 1.54666 4.02667v.0547c0 3.06666-1.84133 4.90666-4.428 5.65466l5.04134 7.068h-3.89467l-4.588-6.508h-4.108v6.508h-3.28z" stroke-width="1.33333325" fill="#ffffff"/>
	<path d="m144.73306 517.49866 2.93333 1.28-3.41333 2.58666h-2.50667zm4.668 15.07066v-.0533c0-3.628-2.64-6.64267-6.34933-6.64267-3.70667 0-6.29334 2.96134-6.29334 6.58934v.0533c0 3.62667 2.64 6.61467 6.34667 6.61467 3.70933 0 6.296-2.93467 6.296-6.56134m-16.084 0v-.0533c0-5.256 4.05467-9.656 9.788-9.656 5.73467 0 9.736 4.34667 9.736 9.60267v.0533c0 5.25333-4.05333 9.65467-9.78933 9.65467-5.73467 0-9.73467-4.348-9.73467-9.60134" stroke-width="1.33333325" fill="#ffffff"/>
	<path d="m166.99706 523.17972h3.28133v18.67067h-3.28133z" stroke-width="1.33333325" fill="#ffffff"/>
	<path d="m197.99439 532.08906h7.89467v3.17466h-7.89467z" stroke-width="1.33333325" fill="#ffffff"/>
	<path d="m241.18092 533.82159h-5.20133v5.12133h5.44133c2.24 0 3.6-.88 3.6-2.56v-.0533c0-1.57467-1.25333-2.508-3.84-2.508m2.80134-5.36133c0-1.46667-1.17467-2.37334-3.28134-2.37334h-4.72133v4.96134h4.48133c2.10667 0 3.52134-.82667 3.52134-2.53334zm-11.22934-5.28h8.37467c2.13333 0 3.81333.58666 4.88 1.65333.82667.82667 1.25467 1.84133 1.25467 3.09333v.0533c0 2.24133-1.28 3.44133-2.66667 4.16133 2.18533.74667 3.70667 2 3.70667 4.53467v.0533c0 3.33467-2.748 5.12-6.908 5.12h-8.64134z" stroke-width="1.33333325" fill="#ffffff"/>
	<path d="m270.08586 532.43492c2.348 0 3.84133-1.22666 3.84133-3.12v-.0533c0-2.00133-1.44-3.09467-3.868-3.09467h-4.77467v6.268zm-8.08134-9.25466h8.32267c2.34533 0 4.18667.69333 5.388 1.86666.98533 1.01334 1.54667 2.40134 1.54667 4.02667v.0547c0 3.06666-1.84134 4.90666-4.428 5.65466l5.04133 7.068h-3.89467l-4.588-6.508h-4.108v6.508h-3.28z" stroke-width="1.33333325" fill="#ffffff"/>
	<path d="m302.59372 534.43626-3.228-7.46934-3.2 7.46934zm-4.69466-11.38934h3.04133l8.21467 18.804h-3.468l-1.89334-4.508h-8.82933l-1.91867 4.508h-3.36133z" stroke-width="1.33333325" fill="#ffffff"/>
	<path d="m320.77732 539.13026 1.97334-2.348c1.78666 1.54666 3.60133 2.428 5.89466 2.428 2.028 0 3.308-.96 3.308-2.34667v-.0533c0-1.33467-.748-2.05467-4.21466-2.85467-3.97467-.96133-6.21467-2.13333-6.21467-5.57467v-.0533c0-3.2 2.668-5.41467 6.37467-5.41467 2.72133 0 4.88133.82667 6.77466 2.348l-1.76 2.48c-1.68-1.25333-3.36133-1.92-5.068-1.92-1.92133 0-3.04.98667-3.04 2.21334v.0533c0 1.44.852 2.08 4.45334 2.93467 3.948.96 5.97466 2.37333 5.97466 5.468v.0533c0 3.49333-2.748 5.57333-6.668 5.57333-2.85466 0-5.54666-.98666-7.788-2.98666" stroke-width="1.33333325" fill="#ffffff"/>
	<path d="m349.28372 523.17972h3.28134v18.67067h-3.28134z" stroke-width="1.33333325" fill="#ffffff"/>
	<path d="m367.55065 523.17972h3.28v15.684h9.81467v2.98667h-13.09467z" stroke-width="1.33333325" fill="#ffffff"/>
</svg>
