<svg xmlns="http://www.w3.org/2000/svg" height="376.87372px" width="813.67188px" version="1.1" viewBox="0 0 813.67184 376.8737">
	<path d="m28.714665 204.08586c2.473333 0 4.416-.448 5.822667-1.34667 1.408-.89733 2.110666-2.292 2.110666-4.184v-.14667c0-1.69733-.654666-3.044-1.964-4.03866-1.312-.99467-3.421333-1.492-6.332-1.492h-12.957333v11.208zm-2.984-20.52667c2.474667 0 4.44-.42267 5.896-1.27333 1.454667-.848 2.182667-2.22 2.182667-4.112v-.14534c0-1.69733-.630667-2.996-1.893334-3.89466-1.261333-.89734-3.081333-1.34667-5.457333-1.34667h-11.064v10.772zm-21.254666-20.59866h23.613333c5.861333 0 10.293333 1.50533 13.297333 4.51333 2.324 2.32933 3.486666 5.21733 3.486666 8.66266v.144c0 1.456-.181333 2.74267-.542666 3.85867-.362667 1.11733-.844 2.124-1.446667 3.02133-.602667.89734-1.301333 1.68534-2.096 2.36534-.797333.68-1.653333 1.26133-2.568 1.74666 2.945333 1.11734 5.264 2.632 6.956 4.54934 1.689333 1.91733 2.536 4.57333 2.536 7.96933v.14667c0 2.32933-.448 4.36666-1.344 6.11466-.897333 1.74534-2.181333 3.20134-3.852 4.36667-1.672 1.164-3.681333 2.03733-6.032 2.62-2.349333.58133-4.952.87333-7.810666.87333h-24.197333z" stroke-width="1.33333325" fill="#ffffff"/>
	<path d="m101.42813 187.70959c2.76533 0 4.888-.65467 6.368-1.96667 1.48-1.30933 2.22-3.056 2.22-5.23866v-.14667c0-2.42533-.77733-4.24533-2.32933-5.45867-1.55334-1.21333-3.71067-1.82-6.47734-1.82h-11.13733v14.63067zm-22.563999-24.74933h23.291999c6.45333 0 11.40267 1.724 14.848 5.168 2.91067 2.912 4.36667 6.796 4.36667 11.648v.144c0 4.12533-1.00667 7.48533-3.02 10.08266-2.01334 2.596-4.64667 4.50134-7.89734 5.71334l12.44667 18.196h-13.10133l-10.91867-16.304h-8.808v16.304h-11.207999z" stroke-width="1.33333325" fill="#ffffff"/>
	<path d="m153.83493 162.96039h11.20933v50.952h-11.20933z" stroke-width="1.33333325" fill="#ffffff"/>
	<path d="m223.49199 214.78639c-3.73733 0-7.20533-.68133-10.40933-2.03867-3.20267-1.35733-5.968-3.21333-8.29733-5.568-2.32934-2.35333-4.14934-5.132-5.45867-8.33466-1.30933-3.20134-1.96667-6.62267-1.96667-10.26134v-.14666c0-3.63867.65734-7.048 1.96667-10.22667 1.30933-3.17733 3.12933-5.968 5.45867-8.37067 2.32933-2.40266 5.12-4.29466 8.37066-5.67733 3.25067-1.38266 6.84267-2.07333 10.772-2.07333 2.37734 0 4.54934.19333 6.51467.58133 1.96533.38934 3.748.92134 5.35067 1.60134 1.60133.68 3.08 1.504 4.44 2.47466 1.35733.97067 2.62 2.03867 3.78533 3.20267l-7.13333 8.22533c-1.99067-1.79467-4.016-3.20267-6.07867-4.22133-2.06267-1.02-4.37867-1.528-6.952-1.528-2.13467 0-4.112.412-5.932 1.236-1.81867.82533-3.384 1.96533-4.69333 3.42133-1.31067 1.45467-2.32934 3.14267-3.05734 5.05867-.728 1.91733-1.092 3.96666-1.092 6.15066v.14534c0 2.184.364 4.24666 1.092 6.18666.728 1.94134 1.73467 3.63867 3.02 5.09467 1.28534 1.456 2.83867 2.60933 4.66 3.45867 1.81867.84933 3.82 1.27333 6.00267 1.27333 2.91333 0 5.376-.53333 7.38933-1.60133 2.01334-1.06667 4.01467-2.52267 6.004-4.368l7.13467 7.20666c-1.31067 1.40667-2.66933 2.66934-4.07733 3.78534-1.40667 1.11733-2.948 2.07333-4.62134 2.87466-1.67333.8-3.50666 1.408-5.496 1.82-1.99066.412-4.22133.61867-6.696.61867" stroke-width="1.33333325" fill="#ffffff"/>
	<path d="m293.36693 214.64066c-3.88267 0-7.692-.668-11.42667-2.00134-3.73733-1.33466-7.13467-3.38533-10.19067-6.15066l6.624-7.93334c2.32934 1.89067 4.71734 3.396 7.16934 4.512 2.44933 1.116 5.13066 1.67334 8.04266 1.67334 2.32934 0 4.13734-.42267 5.42134-1.27334 1.28533-.848 1.93066-2.024 1.93066-3.52933v-.14667c0-.728-.13467-1.36933-.40133-1.928-.268-.55733-.78-1.08-1.53333-1.56533-.75467-.484-1.8-.96933-3.13867-1.456-1.33867-.484-3.07733-.99333-5.21733-1.528-2.58-.63067-4.91467-1.33467-7.00667-2.11067s-3.868-1.73466-5.328-2.87466-2.58933-2.55867-3.39333-4.25867c-.80267-1.69867-1.204-3.80933-1.204-6.33333v-.144c0-2.32934.43333-4.428 1.3-6.29734.86933-1.86666 2.08666-3.48133 3.65333-4.83999 1.56533-1.35734 3.43733-2.40134 5.61333-3.12934 2.17334-.728 4.57334-1.09333 7.19334-1.09333 3.736 0 7.16933.55867 10.29999 1.67467 3.12934 1.11733 6.00534 2.71866 8.624 4.80533l-5.82266 8.44266c-2.28134-1.552-4.51334-2.77733-6.696-3.676-2.184-.89733-4.368-1.34666-6.55067-1.34666-2.184 0-3.82266.42533-4.91333 1.27333-1.092.85067-1.63733 1.90533-1.63733 3.16667v.14666c0 .82534.15866 1.54.47333 2.14667.316.60667.88667 1.15333 1.71467 1.63733.82666.48534 1.95866.94534 3.39466 1.384 1.43467.436 3.248.94534 5.43734 1.528 2.57866.68 4.87599 1.444 6.89733 2.292 2.01866.85067 3.72 1.86934 5.108 3.05734 1.38533 1.18933 2.432 2.584 3.13866 4.18533.704 1.60133 1.05867 3.51867 1.05867 5.75067v.144c0 2.52533-.45867 4.768-1.37467 6.73333-.916 1.96667-2.19333 3.616-3.83333 4.95067-1.63867 1.33466-3.596 2.35466-5.868 3.056-2.27333.70266-4.792 1.056-7.55866 1.056" stroke-width="1.33333325" fill="#ffffff"/>
	<path d="m91.420397 352.27212c-13.586666 0-24.601333-11.016-24.601333-24.60267v-73.80666c0-13.58667 11.014667-24.60133 24.601333-24.60133 13.586663 0 24.601333 11.01466 24.601333 24.60133v73.80666c0 13.58667-11.01467 24.60267-24.601333 24.60267" stroke-width="1.33333325" fill="#284693"/>
	<path d="m158.238 327.66919c-13.58667 0-24.60134-11.01467-24.60134-24.60133v-49.204c0-13.588 11.01467-24.60267 24.60134-24.60267 13.58666 0 24.60266 11.01467 24.60266 24.60267v49.204c0 13.58666-11.016 24.60133-24.60266 24.60133" stroke-width="1.33333325" fill="#f9b234"/>
	<path d="m225.05706 303.06772c-13.58667 0-24.60133-11.01466-24.60133-24.60133v-24.60267c0-13.588 11.01466-24.60133 24.60133-24.60133s24.60133 11.01333 24.60133 24.60133v24.60267c0 13.58667-11.01466 24.60133-24.60133 24.60133" stroke-width="1.33333325" fill="#e7332a"/>
	<path d="m291.87479 278.46612c-13.58666 0-24.60133-11.016-24.60133-24.60266 0-13.588 11.01467-24.60134 24.60133-24.60134 13.58667 0 24.60267 11.01334 24.60267 24.60134 0 13.58666-11.016 24.60266-24.60267 24.60266" stroke-width="1.33333325" fill="#ffde00"/>
	<path d="m24.601332 376.87372c-13.586666 0-24.60133285-11.01467-24.60133285-24.60133v-98.40933c-3.85997e-9-13.58667 11.01466685-24.60134 24.60133285-24.60134s24.602666 11.01467 24.602666 24.60134v98.40933c0 13.58666-11.016 24.60133-24.602666 24.60133" stroke-width="1.33333325" fill="#009641"/>
	<path d="m225.05706 24.602795c13.58667 0 24.60133 11.014667 24.60133 24.601333v73.806662c0 13.58667-11.01466 24.60134-24.60133 24.60134s-24.60133-11.01467-24.60133-24.60134v-73.806662c0-13.586666 11.01466-24.601333 24.60133-24.601333" stroke-width="1.33333325" fill="#e7332a"/>
	<path d="m158.238 49.204395c13.58666 0 24.60266 11.014666 24.60266 24.601332v49.204003c0 13.588-11.016 24.60266-24.60266 24.60266-13.58667 0-24.60134-11.01466-24.60134-24.60266v-49.204003c0-13.586666 11.01467-24.601332 24.60134-24.601332" stroke-width="1.33333325" fill="#f9b234"/>
	<path d="m91.420397 73.805994c13.586663 0 24.601333 11.016 24.601333 24.602666v24.60133c0 13.588-11.01467 24.60134-24.601333 24.60134-13.586666 0-24.601333-11.01334-24.601333-24.60134v-24.60133c0-13.586666 11.014667-24.602666 24.601333-24.602666" stroke-width="1.33333325" fill="#284693"/>
	<path d="m24.601332 98.408793c13.586666 0 24.602666 11.014667 24.602666 24.601337 0 13.588-11.016 24.60133-24.602666 24.60133s-24.60133285-11.01333-24.60133285-24.60133c-3.85997e-9-13.58667 11.01466685-24.601337 24.60133285-24.601337" stroke-width="1.33333325" fill="#009641"/>
	<path d="m291.87479-.0000040888901c13.58667 0 24.60267 11.01600009 24.60267 24.60266609v98.407998c0 13.58667-11.016 24.60133-24.60267 24.60133-13.58666 0-24.60133-11.01466-24.60133-24.60133v-98.407998c0-13.586666 11.01467-24.60266609 24.60133-24.60266609" stroke-width="1.33333325" fill="#ffde00"/>
	<path d="m340.46066 212.81119 4.17866-3.55333c1.664-1.42134 2.27067-2.184 2.27067-3.276 0-1.19734-.85067-1.88934-1.96-1.88934s-1.872.60667-2.79067 1.82l-1.52533-1.196c1.16133-1.612 2.30533-2.532 4.472-2.532 2.376 0 4.004 1.45734 4.004 3.624v.0333c0 1.908-1.00533 2.94666-3.15467 4.69866l-2.496 2.08h5.772v1.872h-8.77066z" stroke-width="1.33333325" fill="#ffffff"/>
	<path d="m352.45546 212.56892 1.49066-1.38666c.868 1.02266 1.83734 1.59333 3.19067 1.59333 1.19467 0 2.09733-.728 2.09733-1.83733v-.0333c0-1.19733-1.092-1.872-2.792-1.872h-.98666l-.348-1.33466 3.276-3.48534h-5.25067v-1.85333h8.024v1.59333l-3.38 3.468c1.83733.22534 3.572 1.16134 3.572 3.39734v.0347c0 2.236-1.716 3.848-4.248 3.848-2.11467 0-3.62133-.884-4.64533-2.132" stroke-width="1.33333325" fill="#ffffff"/>
	<path d="m378.82012 209.93359v-.0347c0-1.768-1.24933-2.92933-2.652-2.92933-1.43866 0-2.636 1.10933-2.636 2.92933v.0347c0 1.768 1.21334 2.92933 2.636 2.92933 1.40267 0 2.652-1.17866 2.652-2.92933m-7.40266 0v-.0347c0-3.03333 2.064-4.74933 4.248-4.74933 1.508 0 2.46.74533 3.12 1.612v-4.92267h2.09733v12.65334h-2.09733v-1.52534c-.676.95334-1.62934 1.71734-3.12 1.71734-2.15067 0-4.248-1.71734-4.248-4.75067" stroke-width="1.33333325" fill="#ffffff"/>
	<path d="m391.26412 209.27466c-.13866-1.352-.936-2.40934-2.32266-2.40934-1.28267 0-2.184.98934-2.37467 2.40934zm-6.77733.676v-.0347c0-2.616 1.85467-4.76667 4.472-4.76667 2.912 0 4.38533 2.288 4.38533 4.924 0 .18934-.0173.38-.0347.588h-6.72667c.22667 1.49067 1.284 2.32267 2.636 2.32267 1.02133 0 1.75067-.38133 2.47867-1.092l1.23066 1.092c-.86666 1.04133-2.06266 1.716-3.74533 1.716-2.65067 0-4.696-1.924-4.696-4.74933" stroke-width="1.33333325" fill="#ffffff"/>
	<path d="m403.03106 212.72399 1.284-1.52533c1.16133 1.00533 2.34 1.57733 3.83066 1.57733 1.316 0 2.148-.624 2.148-1.524v-.036c0-.86533-.484-1.33467-2.73733-1.85333-2.584-.624-4.04-1.388-4.04-3.624v-.0347c0-2.08 1.73333-3.51867 4.144-3.51867 1.768 0 3.172.53734 4.40133 1.52534l-1.14266 1.612c-1.092-.81467-2.18534-1.248-3.29467-1.248-1.24667 0-1.97467.64133-1.97467 1.43866v.0347c0 .936.55467 1.352 2.89467 1.90667 2.56533.62533 3.88267 1.54266 3.88267 3.55333v.0347c0 2.27066-1.78534 3.62266-4.33334 3.62266-1.856 0-3.60533-.64-5.06266-1.94133" stroke-width="1.33333325" fill="#ffffff"/>
	<path d="m416.41386 202.35932h8.996v1.90667h-6.86267v3.15467h6.08267v1.90666h-6.08267v3.25867h6.94933v1.90667h-9.08266z" stroke-width="1.33333325" fill="#ffffff"/>
	<path d="m432.48159 204.33466h-3.84933v-1.97467h9.84666v1.97467h-3.848v10.15733h-2.14933z" stroke-width="1.33333325" fill="#ffffff"/>
	<path d="m442.20545 202.35932h8.996v1.90667h-6.86266v3.15467h6.08266v1.90666h-6.08266v3.25867h6.94933v1.90667h-9.08267z" stroke-width="1.33333325" fill="#ffffff"/>
	<path d="m455.29145 202.35932h2.27067l3.69333 5.73734 3.69067-5.73734h2.27067v12.13334h-2.13067v-8.70267l-3.83067 5.72133h-.0707l-3.796-5.68533v8.66667h-2.09734z" stroke-width="1.33333325" fill="#ffffff"/>
	<path d="m477.28879 209.27466h-3.38v3.328h3.536c1.456 0 2.34-.572 2.34-1.664v-.0333c0-1.024-.81467-1.63066-2.496-1.63066m1.82-3.484c0-.95334-.76267-1.54267-2.132-1.54267h-3.068v3.224h2.91066c1.37067 0 2.28934-.53733 2.28934-1.64667zm-7.29734-3.432h5.44267c1.38667 0 2.47867.38133 3.172 1.07466.53733.53734.81467 1.196.81467 2.01067v.0347c0 1.456-.832 2.236-1.73334 2.70533 1.42134.484 2.40934 1.29867 2.40934 2.94667v.0333c0 2.16667-1.78534 3.328-4.48934 3.328h-5.616z" stroke-width="1.33333325" fill="#ffffff"/>
	<path d="m491.05052 208.37372c1.52533 0 2.496-.79733 2.496-2.028v-.0347c0-1.3-.936-2.01067-2.51333-2.01067h-3.10267v4.07333zm-5.252-6.01466h5.408c1.52533 0 2.72133.45066 3.50133 1.212.64134.66 1.00534 1.56133 1.00534 2.61866v.0347c0 1.99333-1.196 3.18933-2.87734 3.67467l3.276 4.59333h-2.532l-2.98-4.22933h-2.66933v4.22933h-2.132z" stroke-width="1.33333325" fill="#ffffff"/>
	<path d="m509.71852 208.46092v-.0347c0-2.35867-1.716-4.31734-4.12533-4.31734-2.40934 0-4.09067 1.92534-4.09067 4.28134v.036c0 2.356 1.716 4.29733 4.12533 4.29733 2.40934 0 4.09067-1.90533 4.09067-4.26267m-10.45333 0v-.0347c0-3.416 2.636-6.27467 6.36266-6.27467 3.72667 0 6.32667 2.82533 6.32667 6.23867v.036c0 3.41333-2.63467 6.27466-6.36133 6.27466-3.728 0-6.328-2.82533-6.328-6.24" stroke-width="1.33333325" fill="#ffffff"/>
	<path d="m528.10785 211.19919v-.624c-.53733-.208-1.24933-.364-2.08133-.364-1.35067 0-2.148.572-2.148 1.52533v.0347c0 .884.78 1.38667 1.78533 1.38667 1.38667 0 2.444-.79734 2.444-1.95867m-6.27466.65867v-.0347c0-1.976 1.54266-2.94667 3.77866-2.94667 1.02267 0 1.74934.156 2.46134.38134v-.22534c0-1.30133-.79734-1.99333-2.27067-1.99333-1.02267 0-1.78533.22533-2.61733.572l-.55467-1.64667c1.00533-.452 1.99333-.74533 3.44933-.74533 1.36934 0 2.39067.364 3.03334 1.02267.676.65733.988 1.62933.988 2.824v5.42666h-2.04534v-1.144c-.624.74534-1.57733 1.33467-2.98133 1.33467-1.71733 0-3.24133-.988-3.24133-2.82533" stroke-width="1.33333325" fill="#ffffff"/>
	<path d="m548.80305 208.46092v-.0347c0-2.392-1.23066-4.352-3.10266-4.352s-3.068 1.908-3.068 4.316v.036c0 2.392 1.212 4.34933 3.10133 4.34933 1.89067 0 3.06933-1.94133 3.06933-4.31467m-8.372 0v-.0347c0-3.468 2.11467-6.27467 5.30267-6.27467 3.17333 0 5.26933 2.77333 5.26933 6.23867v.036c0 3.46533-2.11466 6.27466-5.30266 6.27466-3.19067 0-5.26934-2.77333-5.26934-6.24" stroke-width="1.33333325" fill="#ffffff"/>
	<path d="m561.55959 206.25906v-.0347c0-1.26667-.988-2.236-2.53067-2.236-1.508 0-2.40933 1.00533-2.40933 2.25333v.0347c0 1.26533.96933 2.16667 2.47866 2.16667 1.54267 0 2.46134-1.00534 2.46134-2.184m.0853 2.66933c-.67467.81467-1.612 1.3-2.85867 1.3-2.584 0-4.3-1.508-4.3-3.848v-.036c0-2.37333 1.83867-4.19333 4.52534-4.19333 1.524 0 2.51333.43333 3.38 1.28266.884.90134 1.456 2.236 1.456 4.628v.0347c0 3.9-1.924 6.604-5.20134 6.604-1.68 0-2.85866-.60667-3.88266-1.456l1.16133-1.62933c.92.76266 1.73467 1.144 2.77333 1.144 2.15067 0 2.93067-2.21867 2.94667-3.83067" stroke-width="1.33333325" fill="#ffffff"/>
	<path d="m581.23278 209.93359v-.0347c0-1.768-1.24933-2.92933-2.652-2.92933-1.43866 0-2.636 1.10933-2.636 2.92933v.0347c0 1.768 1.21334 2.92933 2.636 2.92933 1.40267 0 2.652-1.17866 2.652-2.92933m-7.40266 0v-.0347c0-3.03333 2.06266-4.74933 4.248-4.74933 1.508 0 2.46.74533 3.12 1.612v-4.92267h2.09733v12.65334h-2.09733v-1.52534c-.676.95334-1.62934 1.71734-3.12 1.71734-2.15067 0-4.248-1.71734-4.248-4.75067" stroke-width="1.33333325" fill="#ffffff"/>
	<path d="m593.67812 209.27466c-.13867-1.352-.936-2.40934-2.32267-2.40934-1.28267 0-2.184.98934-2.37467 2.40934zm-6.77734.676v-.0347c0-2.616 1.85467-4.76667 4.472-4.76667 2.912 0 4.38534 2.288 4.38534 4.924 0 .18934-.0173.38-.0347.588h-6.72667c.22667 1.49067 1.284 2.32267 2.636 2.32267 1.02134 0 1.75067-.38133 2.47867-1.092l1.23067 1.092c-.86667 1.04133-2.06267 1.716-3.74534 1.716-2.65066 0-4.696-1.924-4.696-4.74933" stroke-width="1.33333325" fill="#ffffff"/>
	<path d="m616.17545 208.46092v-.0347c0-2.35867-1.716-4.31734-4.12667-4.31734-2.408 0-4.08933 1.92534-4.08933 4.28134v.036c0 2.356 1.716 4.29733 4.12533 4.29733 2.40934 0 4.09067-1.90533 4.09067-4.26267m-10.45333 0v-.0347c0-3.416 2.636-6.27467 6.36266-6.27467 3.72667 0 6.32667 2.82533 6.32667 6.23867v.036c0 3.41333-2.63467 6.27466-6.36267 6.27466-3.72666 0-6.32666-2.82533-6.32666-6.24" stroke-width="1.33333325" fill="#ffffff"/>
	<path d="m622.27572 209.34372v-6.984h2.132v6.89867c0 2.25333 1.16133 3.448 3.06666 3.448 1.88934 0 3.05067-1.12533 3.05067-3.36267v-6.984h2.13333v6.88134c0 3.62266-2.04533 5.44266-5.21733 5.44266-3.15467 0-5.16533-1.82-5.16533-5.34" stroke-width="1.33333325" fill="#ffffff"/>
	<path d="m640.04265 204.33466h-3.848v-1.97467h9.84533v1.97467h-3.848v10.15733h-2.14933z" stroke-width="1.33333325" fill="#ffffff"/>
	<path d="m649.57652 209.34372v-6.984h2.132v6.89867c0 2.25333 1.16133 3.448 3.06666 3.448 1.89067 0 3.05067-1.12533 3.05067-3.36267v-6.984h2.13333v6.88134c0 3.62266-2.04533 5.44266-5.21733 5.44266-3.15467 0-5.16533-1.82-5.16533-5.34" stroke-width="1.33333325" fill="#ffffff"/>
	<path d="m669.83825 209.27466h-3.38v3.328h3.536c1.456 0 2.34-.572 2.34-1.664v-.0333c0-1.024-.81467-1.63066-2.496-1.63066m1.82-3.484c0-.95334-.76267-1.54267-2.132-1.54267h-3.068v3.224h2.91067c1.37066 0 2.28933-.53733 2.28933-1.64667zm-7.29733-3.432h5.44266c1.38667 0 2.47867.38133 3.172 1.07466.53734.53734.81467 1.196.81467 2.01067v.0347c0 1.456-.832 2.236-1.73333 2.70533 1.42133.484 2.40933 1.29867 2.40933 2.94667v.0333c0 2.16667-1.78533 3.328-4.48933 3.328h-5.616z" stroke-width="1.33333325" fill="#ffffff"/>
	<path d="m683.60132 208.37372c1.52533 0 2.496-.79733 2.496-2.028v-.0347c0-1.3-.936-2.01067-2.51467-2.01067h-3.10133v4.07333zm-5.252-6.01466h5.408c1.52533 0 2.72133.45066 3.50133 1.212.64133.66 1.00533 1.56133 1.00533 2.61866v.0347c0 1.99333-1.196 3.18933-2.87733 3.67467l3.276 4.59333h-2.532l-2.98-4.22933h-2.66933v4.22933h-2.132z" stroke-width="1.33333325" fill="#ffffff"/>
	<path d="m702.26798 208.46092v-.0347c0-2.35867-1.716-4.31734-4.12533-4.31734s-4.09067 1.92534-4.09067 4.28134v.036c0 2.356 1.716 4.29733 4.12534 4.29733 2.40933 0 4.09066-1.90533 4.09066-4.26267m-10.45333 0v-.0347c0-3.416 2.636-6.27467 6.36267-6.27467 3.72666 0 6.32666 2.82533 6.32666 6.23867v.036c0 3.41333-2.63467 6.27466-6.36133 6.27466-3.728 0-6.328-2.82533-6.328-6.24" stroke-width="1.33333325" fill="#ffffff"/>
	<path d="m726.82131 209.60159 8.352-6.376c2.072-1.62533 2.9-2.67733 2.9-4.016 0-1.43467-.988-2.296-2.51733-2.296-1.49867 0-2.67733.892-4.43067 2.90133l-4.176-3.47466c2.39067-3.09334 4.78134-4.78134 9.084-4.78134 4.87734 0 8.22534 2.90134 8.22534 7.108v.064c0 3.56934-1.84934 5.41867-5.16534 7.80934l-3.824 2.67866h9.212v5.036h-17.66z" stroke-width="1.33333325" fill="#ffffff"/>
	<path d="m765.39811 203.16146v-.064c0-3.57067-1.65733-6.152-4.144-6.152-2.45466 0-4.08 2.51866-4.08 6.088v.064c0 3.57066 1.65734 6.12133 4.144 6.12133 2.48667 0 4.08-2.51867 4.08-6.05733m-14.44 0v-.064c0-6.31067 4.016-11.60267 10.36-11.60267 6.34267 0 10.296 5.228 10.296 11.53867v.064c0 6.31333-3.984 11.604-10.36 11.604-6.34266 0-10.296-5.228-10.296-11.54" stroke-width="1.33333325" fill="#ffffff"/>
	<path d="m781.63118 197.51946-3.76267.89333-1.17866-4.78267 6.53466-1.84933h4.49334v22.47467h-6.08667z" stroke-width="1.33333325" fill="#ffffff"/>
	<path d="m807.55051 199.40106v-.0653c0-1.72133-1.244-3.06-3.188-3.06s-3.12266 1.308-3.12266 3.02934v.064c0 1.688 1.24266 2.932 3.18666 2.932 1.94534 0 3.124-1.27467 3.124-2.9m-.064 5.51466c-1.36933 1.27467-2.996 1.816-4.74933 1.816-4.30267 0-7.492-2.70933-7.492-7.07733v-.0627c0-4.90933 3.79333-8.09733 8.89467-8.09733 3.252 0 5.164.892 6.85333 2.58267 1.62667 1.62666 2.67867 4.176 2.67867 8.288v.064c0 7.268-3.63467 12.27333-10.29734 12.27333-3.348 0-5.73866-1.052-7.80933-2.64667l2.90133-4.272c1.56 1.21067 3.028 1.78534 4.78 1.78534 3.252 0 4.08134-2.868 4.24-4.65334" stroke-width="1.33333325" fill="#ffffff"/>
	<path d="m341.07919 172.43612v-.0533c0-5.37733 4.02667-9.78266 9.75467-9.78266 3.48666 0 5.59466 1.216 7.404 2.94533l-2.13334 2.46c-1.51333-1.40667-3.136-2.352-5.29733-2.352-3.59333 0-6.24267 2.97333-6.24267 6.67466v.0547c0 3.70133 2.62134 6.7 6.24267 6.7 2.324 0 3.80933-.91733 5.432-2.43067l2.13467 2.16134c-1.97334 2.05333-4.13467 3.35066-7.67467 3.35066-5.51333 0-9.62-4.29733-9.62-9.728" stroke-width="1.33333325" fill="#ffffff"/>
	<path d="m365.72426 162.92439h3.324v18.916h-3.324z" stroke-width="1.33333325" fill="#ffffff"/>
	<path d="m377.77586 162.92439h3.08133l10.13333 13.08v-13.08h3.26934v18.916h-2.784l-10.42934-13.45733v13.45733h-3.27066z" stroke-width="1.33333325" fill="#ffffff"/>
	<path d="m402.79919 162.92439h14.02533v2.972h-10.70133v4.91867h9.484v2.972h-9.484v5.08h10.836v2.97333h-14.16z" stroke-width="1.33333325" fill="#ffffff"/>
	<path d="m434.48025 162.92439h14.08v3.02667h-10.756v5.16133h9.53867v3.02667h-9.53867v7.70133h-3.324z" stroke-width="1.33333325" fill="#ffffff"/>
	<path d="m455.88385 162.92439h14.02534v2.972h-10.70267v4.91867h9.48533v2.972h-9.48533v5.08h10.83733v2.97333h-14.16z" stroke-width="1.33333325" fill="#ffffff"/>
	<path d="m476.39305 179.08332 2-2.37733c1.81067 1.568 3.648 2.46 5.972 2.46 2.05467 0 3.35067-.97333 3.35067-2.37867v-.0547c0-1.35067-.756-2.08-4.26933-2.892-4.02534-.972-6.296-2.16134-6.296-5.64667v-.0547c0-3.24267 2.70266-5.48534 6.45733-5.48534 2.75733 0 4.94533.83867 6.86533 2.37867l-1.78266 2.51333c-1.704-1.27066-3.40667-1.94666-5.136-1.94666-1.94534 0-3.08 1-3.08 2.24266v.0547c0 1.45867.864 2.10666 4.512 2.972 4 .97333 6.05333 2.40533 6.05333 5.54v.0547c0 3.53867-2.784 5.648-6.756 5.648-2.89067 0-5.62133-1-7.89067-3.028" stroke-width="1.33333325" fill="#ffffff"/>
	<path d="m502.87612 166.00519h-5.99867v-3.08133h15.34934v3.08133h-5.99867v15.83467h-3.352z" stroke-width="1.33333325" fill="#ffffff"/>
	<path d="m538.29265 168.41799h2.2l7.23867 9.34533v-9.34533h2.33733v13.51467h-1.988l-7.45333-9.61467v9.61467h-2.33467z" stroke-width="1.33333325" fill="#ffffff"/>
	<path d="m560.91359 168.41773h2.37466v13.51466h-2.37466z" stroke-width="1.33333325" fill="#ffffff"/>
	<path d="m577.45678 170.61852h-4.28666v-2.19999h10.96533v2.19999h-4.28533v11.31334h-2.39334z" stroke-width="1.33333325" fill="#ffffff"/>
	<path d="m593.88118 168.41799h10.02v2.124h-7.64533v3.51467h6.776v2.12266h-6.776v3.62934h7.74133v2.124h-10.116z" stroke-width="1.33333325" fill="#ffffff"/>
	<path d="m619.90212 175.11719c1.69866 0 2.78-.888 2.78-2.25733v-.04c0-1.448-1.04134-2.23867-2.8-2.23867h-3.45467v4.536zm-5.84934-6.69866h6.024c1.69734 0 3.03067.50266 3.9 1.35066.71334.73333 1.12 1.73867 1.12 2.916v.0387c0 2.22-1.33333 3.552-3.20666 4.092l3.65066 5.116h-2.82l-3.32-4.70934h-2.97333v4.70934h-2.37467z" stroke-width="1.33333325" fill="#ffffff"/>
	<path d="m642.91118 164.30599 2.12267.92667-2.47067 1.87333h-1.81466zm3.37867 10.908v-.0387c0-2.62533-1.91067-4.80666-4.596-4.80666-2.684 0-4.556 2.14266-4.556 4.768v.0387c0 2.62534 1.912 4.788 4.59467 4.788 2.684 0 4.55733-2.124 4.55733-4.74933m-11.64133 0v-.0387c0-3.80266 2.93333-6.98933 7.084-6.98933 4.15066 0 7.04666 3.148 7.04666 6.95067v.0387c0 3.804-2.93333 6.98934-7.08533 6.98934-4.15067 0-7.04533-3.148-7.04533-6.95067" stroke-width="1.33333325" fill="#ffffff"/>
	<path d="m659.02558 168.41773h2.37467v13.51466h-2.37467z" stroke-width="1.33333325" fill="#ffffff"/>
	<path d="m681.46292 174.86572h5.71333v2.29867h-5.71333z" stroke-width="1.33333325" fill="#ffffff"/>
	<path d="m712.72238 176.12106h-3.76533v3.70666h3.93866c1.62267 0 2.60667-.636 2.60667-1.852v-.04c0-1.13866-.908-1.81466-2.78-1.81466m2.028-3.88c0-1.06267-.85067-1.71867-2.376-1.71867h-3.41733v3.59067h3.244c1.52533 0 2.54933-.59734 2.54933-1.83334zm-8.128-3.82267h6.06133c1.544 0 2.76.424 3.532 1.19734.59867.59733.908 1.33199.908 2.23866v.0387c0 1.62266-.92666 2.49066-1.92933 3.012 1.58133.54 2.68267 1.448 2.68267 3.28266v.0373c0 2.41466-1.98934 3.70666-5 3.70666h-6.25467z" stroke-width="1.33333325" fill="#ffffff"/>
	<path d="m733.64425 175.11719c1.69866 0 2.78133-.888 2.78133-2.25733v-.04c0-1.448-1.04267-2.23867-2.8-2.23867h-3.45467v4.536zm-5.84934-6.69866h6.024c1.69867 0 3.03067.50266 3.9 1.35066.71334.73333 1.12 1.73867 1.12 2.916v.0387c0 2.22-1.33333 3.552-3.20533 4.092l3.64933 5.116h-2.82l-3.32-4.70934h-2.972v4.70934h-2.376z" stroke-width="1.33333325" fill="#ffffff"/>
	<path d="m757.17425 176.56506-2.336-5.40534-2.316 5.40534zm-3.39734-8.244h2.20134l5.94666 13.61066h-2.51066l-1.37067-3.26266h-6.39067l-1.38933 3.26266h-2.43333z" stroke-width="1.33333325" fill="#ffffff"/>
	<path d="m770.33691 179.96346 1.428-1.69867c1.29334 1.11867 2.60534 1.756 4.26667 1.756 1.468 0 2.39333-.69467 2.39333-1.69733v-.04c0-.96534-.54-1.48667-3.05066-2.06667-2.876-.69333-4.49867-1.544-4.49867-4.03333v-.0387c0-2.31733 1.93333-3.92 4.61467-3.92 1.97066 0 3.53466.6 4.904 1.7l-1.27334 1.79467c-1.216-.90667-2.432-1.39067-3.668-1.39067-1.39066 0-2.20133.716-2.20133 1.604v.0373c0 1.04267.61733 1.50667 3.224 2.12534 2.85733.69333 4.32533 1.71733 4.32533 3.956v.04c0 2.528-1.99066 4.03466-4.82666 4.03466-2.06667 0-4.016-.71466-5.63734-2.16266" stroke-width="1.33333325" fill="#ffffff"/>
	<path d="m790.96958 168.41773h2.37467v13.51466h-2.37467z" stroke-width="1.33333325" fill="#ffffff"/>
	<path d="m804.19238 168.41799h2.37333v11.35333h7.10534v2.16134h-9.47867z" stroke-width="1.33333325" fill="#ffffff"/>
</svg>
