<svg xmlns="http://www.w3.org/2000/svg" height="549.35449px" width="377.95413px" version="1.1" viewBox="0 0 377.95412 549.35447">
	<path d="m34.293463 243.72907c2.954666 0 5.273333-.53467 6.954666-1.608 1.68-1.072 2.52-2.73867 2.52-4.99734v-.17466c0-2.02667-.781333-3.636-2.346666-4.824-1.565334-1.188-4.085334-1.78267-7.562667-1.78267h-15.473333v13.38667zm-3.564-24.51334c2.954667 0 5.302667-.50666 7.041333-1.52 1.738667-1.01333 2.606667-2.652 2.606667-4.912v-.17333c0-2.028-.753334-3.57733-2.26-4.65067-1.508-1.072-3.681333-1.608-6.518667-1.608h-13.213333v12.864zm-25.382666-24.6h28.199999c7 0 12.292 1.79734 15.88 5.39067 2.776 2.78133 4.164 6.22933 4.164 10.344v.17333c0 1.73734-.216 3.27467-.648 4.608-.432 1.33334-1.008 2.53467-1.728 3.60667-.72 1.07333-1.553333 2.01467-2.504 2.82533-.950667.812-1.973333 1.508-3.065333 2.08534 3.517333 1.33333 6.286666 3.14533 8.306666 5.43333 2.018667 2.28933 3.029333 5.46267 3.029333 9.51867v.17333c0 2.78133-.536 5.21467-1.605333 7.30267-1.070667 2.08533-2.604 3.824-4.601333 5.21466-1.996 1.39067-4.397333 2.43467-7.202667 3.13067-2.806666.69466-5.914666 1.04266-9.327999 1.04266h-28.897333z" fill="#ffffff"/>
	<path d="m121.13133 224.17053c3.30266 0 5.83733-.78133 7.60666-2.34666 1.76534-1.56534 2.65067-3.65067 2.65067-6.25867v-.17333c0-2.89734-.928-5.07067-2.78267-6.52-1.85466-1.448-4.432-2.17334-7.73466-2.17334h-13.30134v17.472zm-26.946669-29.55466h27.815999c7.70667 0 13.61733 2.05866 17.732 6.172 3.47733 3.47733 5.216 8.11466 5.216 13.90933v.172c0 4.928-1.20267 8.94-3.60667 12.04-2.40533 3.10133-5.55066 5.376-9.432 6.824l14.864 21.732h-15.64533l-13.04-19.472h-10.51867v19.472h-13.385329z" fill="#ffffff"/>
	<path d="m183.71773 194.6156h13.38666v60.84933h-13.38666z" fill="#ffffff"/>
	<path d="m266.90612 256.50773c-4.464 0-8.60666-.812-12.43066-2.43333-3.82534-1.62267-7.128-3.83867-9.90934-6.64933-2.78266-2.812-4.956-6.12934-6.52-9.95334-1.564-3.82533-2.34666-7.91066-2.34666-12.25733v-.17467c0-4.34533.78266-8.416 2.34666-12.212 1.564-3.79466 3.73734-7.128 6.52-9.99733 2.78134-2.868 6.11334-5.128 9.996-6.78 3.88134-1.652 8.172-2.47733 12.86534-2.47733 2.83866 0 5.432.23333 7.78.69466 2.34666.46534 4.476 1.10134 6.38933 1.91334 1.912.812 3.67867 1.79733 5.30267 2.956 1.62 1.15866 3.128 2.43333 4.52 3.824l-8.51867 9.82266c-2.37733-2.14266-4.796-3.824-7.25867-5.04133-2.464-1.21733-5.23066-1.82533-8.30133-1.82533-2.55067 0-4.912.49333-7.08533 1.47733-2.17334.98533-4.04134 2.34667-5.60534 4.08533-1.56533 1.73867-2.78266 3.75334-3.652 6.04134-.86933 2.29066-1.304 4.73733-1.304 7.34533v.17333c0 2.608.43467 5.072 1.304 7.38934.86934 2.31866 2.072 4.34666 3.60667 6.08533 1.536 1.73867 3.39067 3.116 5.564 4.12933 2.17333 1.01334 4.564 1.52 7.172 1.52 3.47733 0 6.41733-.636 8.82267-1.912 2.40533-1.27333 4.79466-3.012 7.172-5.216l8.51866 8.60667c-1.564 1.68-3.188 3.18667-4.868 4.51867-1.68133 1.33466-3.52133 2.47866-5.52 3.43466-2 .956-4.188 1.68133-6.56266 2.17333-2.37734.49067-5.04134.73867-7.99734.73867" fill="#ffffff"/>
	<path d="m350.35399 256.33333c-4.63733 0-9.18533-.79733-13.64667-2.38933-4.464-1.59334-8.52-4.04267-12.16933-7.34667l7.90933-9.47333c2.78267 2.25867 5.63467 4.05733 8.56267 5.38933 2.92533 1.33334 6.128 1.99867 9.60533 1.99867 2.78133 0 4.94-.50667 6.476-1.52133 1.53467-1.01334 2.304-2.41867 2.304-4.216v-.17334c0-.86933-.16133-1.636-.48-2.30266-.32-.66667-.93067-1.28934-1.832-1.87067-.89867-.57733-2.148-1.15867-3.74667-1.73733-1.59733-.58-3.67599-1.188-6.23199-1.82667-3.08-.752-5.868-1.59333-8.36667-2.52s-4.62-2.072-6.36267-3.43333c-1.744-1.36134-3.09466-3.056-4.052-5.08534-.96-2.028-1.44-4.54933-1.44-7.564v-.17333c0-2.78133.51867-5.28667 1.55467-7.51867 1.03733-2.23066 2.49067-4.15733 4.36133-5.78 1.872-1.62266 4.10667-2.86933 6.704-3.73866 2.59734-.868 5.46134-1.30267 8.59067-1.30267 4.46133 0 8.56266.66667 12.30133 1.99867 3.73733 1.33466 7.17067 3.24533 10.3 5.736l-6.95333 10.084c-2.72534-1.85334-5.39067-3.31734-7.99867-4.38934s-5.216-1.608-7.82266-1.608c-2.608 0-4.564.508-5.868 1.52-1.304 1.01467-1.956 2.276-1.956 3.78134v.17466c0 .98534.18933 1.84.56666 2.564.37734.72534 1.05867 1.37734 2.048 1.956.988.58 2.33867 1.12934 4.05334 1.652 1.71466.52134 3.87866 1.12934 6.49333 1.82534 3.07866.812 5.824 1.724 8.236 2.73866 2.412 1.01467 4.444 2.232 6.10266 3.65067 1.65467 1.42133 2.904 3.08533 3.74667 4.99733.84133 1.91334 1.264 4.20267 1.264 6.868v.17467c0 3.012-.54667 5.692-1.64133 8.04-1.09467 2.34667-2.61867 4.31733-4.576 5.91066-1.95867 1.59467-4.29467 2.812-7.008 3.65067-2.716.84-5.724 1.26-9.028 1.26" fill="#ffffff"/>
	<path d="m109.17946 420.69919c-16.226665 0-29.381332-13.15333-29.381332-29.38v-88.14399c0-16.22667 13.154667-29.38 29.381332-29.38 16.22667 0 29.38133 13.15333 29.38133 29.38v88.14399c0 16.22667-13.15466 29.38-29.38133 29.38" fill="#284693"/>
	<path d="m188.97706 391.31893c-16.22667 0-29.38133-13.15467-29.38133-29.38133v-58.76134c0-16.22666 13.15466-29.38133 29.38133-29.38133s29.38133 13.15467 29.38133 29.38133v58.76134c0 16.22666-13.15466 29.38133-29.38133 29.38133" fill="#f9b233"/>
	<path d="m268.77452 361.93746c-16.22666 0-29.38133-13.15333-29.38133-29.38v-29.38133c0-16.22667 13.15467-29.38 29.38133-29.38 16.22667 0 29.38134 13.15333 29.38134 29.38v29.38133c0 16.22667-13.15467 29.38-29.38134 29.38" fill="#e6342a"/>
	<path d="m348.57279 332.5572c-16.22667 0-29.38133-13.15467-29.38133-29.38134 0-16.22666 13.15466-29.38 29.38133-29.38 16.22666 0 29.38133 13.15334 29.38133 29.38 0 16.22667-13.15467 29.38134-29.38133 29.38134" fill="#ffde00"/>
	<path d="m29.38133 450.08066c-16.226667 0-29.38133291-13.15467-29.38133291-29.38133v-117.524c0-16.22667 13.15466591-29.38 29.38133291-29.38 16.226666 0 29.381332 13.15333 29.381332 29.38v117.524c0 16.22666-13.154666 29.38133-29.381332 29.38133" fill="#009640"/>
	<path d="m268.77452 29.381471c16.22667 0 29.38134 13.153333 29.38134 29.379999v88.144c0 16.22666-13.15467 29.38-29.38134 29.38-16.22666 0-29.38133-13.15334-29.38133-29.38v-88.144c0-16.226666 13.15467-29.379999 29.38133-29.379999" fill="#e6342a"/>
	<path d="m188.97706 58.761603c16.22667 0 29.38133 13.154666 29.38133 29.381333v58.761334c0 16.22666-13.15466 29.38133-29.38133 29.38133s-29.38133-13.15467-29.38133-29.38133v-58.761334c0-16.226667 13.15466-29.381333 29.38133-29.381333" fill="#f9b233"/>
	<path d="m109.17946 88.143202c16.22667 0 29.38133 13.153338 29.38133 29.379998v29.38133c0 16.22667-13.15466 29.38-29.38133 29.38-16.226665 0-29.381332-13.15333-29.381332-29.38v-29.38133c0-16.22666 13.154667-29.379998 29.381332-29.379998" fill="#284693"/>
	<path d="m29.38133 117.52333c16.226666 0 29.381332 13.15467 29.381332 29.38134 0 16.22666-13.154666 29.38-29.381332 29.38-16.226667 0-29.38133291-13.15334-29.38133291-29.38-2.39e-9-16.22667 13.15466591-29.38134 29.38133291-29.38134" fill="#009640"/>
	<path d="m348.57279.00000458829c16.22666 0 29.38133 13.15466641 29.38133 29.38133241v117.523993c0 16.22667-13.15467 29.38-29.38133 29.38-16.22667 0-29.38133-13.15333-29.38133-29.38v-117.523993c0-16.226666 13.15466-29.38133241 29.38133-29.38133241" fill="#ffde00"/>
	<path d="m.00053042093 471.17306h20.93199958v4.49867h-15.989333v7.67466h14.182666v4.49867h-14.182666v11.45067h-4.942666579z" fill="#ffffff"/>
	<path d="m32.66573 471.17293h4.941333v28.12266h-4.941333z" fill="#ffffff"/>
	<path d="m51.146929 471.17306h4.941333v23.624h14.785333v4.49867h-19.726666z" fill="#ffffff"/>
	<path d="m82.043462 471.17306h5.264l8.557333 13.29867 8.557335-13.29867h5.26266v28.12267h-4.94133v-20.168l-8.878665 13.25733h-.161334l-8.798666-13.17867v20.08934h-4.861333z" fill="#ffffff"/>
	<path d="m141.02453 471.17306h20.932v4.49867h-15.99067v7.67466h14.18267v4.49867h-14.18267v11.45067h-4.94133z" fill="#ffffff"/>
	<path d="m173.40733 471.17306h20.852v4.41867h-15.90934v7.312h14.10134v4.42h-14.10134v7.552h16.11067v4.42h-21.05333z" fill="#ffffff"/>
	<path d="m204.46533 495.19786 2.97333-3.53467c2.692 2.32934 5.424 3.656 8.87867 3.656 3.05333 0 4.98133-1.44666 4.98133-3.53733v-.0787c0-2.00933-1.124-3.09333-6.34667-4.3-5.98666-1.44666-9.36133-3.21466-9.36133-8.39733v-.0787c0-4.82133 4.01733-8.156 9.60267-8.156 4.09733 0 7.35199 1.24534 10.20399 3.53467l-2.652 3.73733c-2.53066-1.888-5.06133-2.89333-7.63333-2.89333-2.89333 0-4.58 1.48667-4.58 3.33467v.08c0 2.16933 1.28667 3.13333 6.70933 4.42 5.94667 1.44666 9 3.57466 9 8.236v.08c0 5.26266-4.13733 8.39733-10.04399 8.39733-4.29867 0-8.35734-1.48667-11.732-4.5" fill="#ffffff"/>
	<path d="m244.40212 475.75253h-8.91866v-4.58h22.82v4.58h-8.92v23.54266h-4.98134z" fill="#ffffff"/>
	<path d="m269.83506 471.17293h4.94133v28.12266h-4.94133z" fill="#ffffff"/>
	<path d="m285.90612 471.17306h5.464l8.47734 21.61467 8.43733-21.61467h5.344l-11.652 28.324h-4.37867z" fill="#ffffff"/>
	<path d="m337.49466 488.12626-4.86134-11.24933-4.82133 11.24933zm-7.07067-17.15467h4.58l12.37467 28.324h-5.22267l-2.85333-6.78933h-13.29867l-2.89333 6.78933h-5.06134z" fill="#ffffff"/>
	<path d="m358.22639 471.17306h4.94266v23.624h14.784v4.49867h-19.72666z" fill="#ffffff"/>
	<path d="m.00053042093 531.15879h2.871999879l9.4493327 12.19467v-12.19467h3.048v17.63867h-2.593333l-9.7266663-12.54934v12.54934h-3.049333279z" fill="#ffffff"/>
	<path d="m21.34573 531.15826h3.1v17.63866h-3.1z" fill="#ffffff"/>
	<path d="m34.75173 534.03119h-5.594667v-2.872h14.313333v2.872h-5.594667v14.76533h-3.123999z" fill="#ffffff"/>
	<path d="m48.006396 531.15879h13.077333v2.77067h-9.977333v4.58666h8.844v2.772h-8.844v4.736h10.102666v2.77334h-13.202666z" fill="#ffffff"/>
	<path d="m73.784929 539.90226c2.217333 0 3.627999-1.15867 3.627999-2.948v-.0507c0-1.88933-1.359999-2.92267-3.653333-2.92267h-4.509333v5.92134zm-7.634667-8.744h7.861333c2.217334 0 3.956.656 5.090667 1.76533.930666.956 1.46 2.26667 1.46 3.804v.0493c0 2.89867-1.737334 4.63734-4.181333 5.34267l4.761333 6.67733h-3.678667l-4.334666-6.148h-3.878667v6.148h-3.1z" fill="#ffffff"/>
	<path fill="#ffffff" d="m95.634661 525.79159 2.772 1.20933-3.225333 2.444h-2.369334zm4.409329 14.23733v-.0507c0-3.428-2.494662-6.27467-5.997329-6.27467-3.501333 0-5.946666 2.79733-5.946666 6.224v.0507c0 3.42666 2.494666 6.248 5.997333 6.248 3.502666 0 5.946662-2.77067 5.946662-6.19734m-15.193329 0v-.0507c0-4.964 3.830667-9.12134 9.246667-9.12134 5.417333 0 9.197332 4.10667 9.197332 9.07067v.0507c0 4.96266-3.829332 9.12-9.247999 9.12-5.416 0-9.196-4.10667-9.196-9.06934"/>
	<path d="m108.48839 531.15826h3.1v17.63866h-3.1z" fill="#ffffff"/>
	<path d="m125.84839 539.57426h7.45867v2.99866h-7.45867z" fill="#ffffff"/>
	<path d="m155.35719 541.21226h-4.91333v4.83866h5.14c2.116 0 3.40133-.832 3.40133-2.42v-.0507c0-1.48534-1.184-2.368-3.628-2.368m2.64667-5.064c0-1.38667-1.10933-2.24267-3.1-2.24267h-4.46v4.68667h4.23333c1.99067 0 3.32667-.78134 3.32667-2.39467zm-10.608-4.98934h7.91067c2.016 0 3.604.55467 4.612 1.56267.78.78133 1.184 1.73867 1.184 2.92267v.0493c0 2.11733-1.20934 3.252-2.52 3.932 2.06666.70533 3.50266 1.88933 3.50266 4.28267v.0507c0 3.14934-2.596 4.83734-6.52533 4.83734h-8.164z" fill="#ffffff"/>
	<path d="m174.48493 539.90226c2.21733 0 3.628-1.15867 3.628-2.948v-.0507c0-1.88933-1.36-2.92267-3.65334-2.92267h-4.50933v5.92134zm-7.63467-8.744h7.86133c2.21734 0 3.956.656 5.09067 1.76533.932.956 1.46 2.26667 1.46 3.804v.0493c0 2.89867-1.73733 4.63734-4.18133 5.34267l4.76133 6.67733h-3.67867l-4.33466-6.148h-3.87867v6.148h-3.1z" fill="#ffffff"/>
	<path d="m197.01346 541.79159-3.04933-7.05467-3.02267 7.05467zm-4.43467-10.75867h2.87334l7.75866 17.764h-3.27466l-1.78934-4.25733h-8.34l-1.81333 4.25733h-3.17467z" fill="#ffffff"/>
	<path d="m206.01226 546.22652 1.864-2.21733c1.68933 1.46133 3.40267 2.29333 5.56933 2.29333 1.916 0 3.124-.90666 3.124-2.21733v-.0507c0-1.26-.704-1.94-3.98-2.696-3.75466-.908-5.872-2.016-5.872-5.26666v-.0493c0-3.024 2.52-5.11466 6.02134-5.11466 2.572 0 4.61199.78133 6.40266 2.216l-1.664 2.344c-1.588-1.184-3.17466-1.81467-4.78666-1.81467-1.816 0-2.87334.93333-2.87334 2.092v.0493c0 1.36.80534 1.96534 4.208 2.772 3.72933.908 5.644 2.244 5.644 5.16534v.0507c0 3.30134-2.596 5.26534-6.29866 5.26534-2.69734 0-5.24134-.93067-7.35867-2.82134" fill="#ffffff"/>
	<path d="m224.76172 531.15826h3.1v17.63866h-3.1z" fill="#ffffff"/>
	<path d="m233.83452 531.15879h3.1v14.816h9.27067v2.82267h-12.37067z" fill="#ffffff"/>
	<path d="m271.95292 542.98692 10.424-7.95733c2.58667-2.02933 3.62134-3.34267 3.62134-5.01467 0-1.78933-1.23334-2.864-3.14267-2.864-1.87067 0-3.344 1.11467-5.53067 3.62134l-5.212-4.33734c2.984-3.86 5.96667-5.968 11.33867-5.968 6.08667 0 10.26667 3.62 10.26667 8.87334v.0787c0 4.45734-2.30934 6.764-6.44667 9.74934l-4.77467 3.34266h11.49867v6.28534h-22.04267z" fill="#ffffff"/>
	<path d="m319.30319 534.95052v-.08c0-4.456-2.068-7.67866-5.172-7.67866-3.064 0-5.09333 3.14266-5.09333 7.59866v.08c0 4.456 2.06933 7.64 5.172 7.64 3.104 0 5.09333-3.14266 5.09333-7.56m-18.02533 0v-.08c0-7.87866 5.01466-14.48266 12.932-14.48266 7.91866 0 12.852 6.52533 12.852 14.40266v.08c0 7.87867-4.97334 14.484-12.93067 14.484-7.91733 0-12.85333-6.52666-12.85333-14.404" fill="#ffffff"/>
	<path d="m338.75959 527.90746-4.69467 1.11466-1.472-5.96933 8.156-2.30667h5.61067v28.05067h-7.6z" fill="#ffffff"/>
	<path d="m370.31359 530.25519v-.08c0-2.148-1.552-3.82-3.97867-3.82s-3.89867 1.632-3.89867 3.78v.08c0 2.10933 1.55067 3.66133 3.97867 3.66133 2.42667 0 3.89867-1.59333 3.89867-3.62133m-.0787 6.884c-1.71067 1.59067-3.74133 2.26667-5.928 2.26667-5.372 0-9.352-3.38134-9.352-8.832v-.08c0-6.128 4.73467-10.10534 11.10133-10.10534 4.06 0 6.44667 1.11334 8.556 3.22267 2.02934 2.028 3.34134 5.212 3.34134 10.344v.08c0 9.072-4.536 15.31867-12.852 15.31867-4.17734 0-7.16134-1.312-9.748-3.30134l3.62-5.332c1.95066 1.51067 3.78133 2.228 5.96933 2.228 4.05867 0 5.09333-3.58133 5.292-5.80933" fill="#ffffff"/>
</svg>
