<svg xmlns="http://www.w3.org/2000/svg" height="541.64252px" width="377.95398px" version="1.1" viewBox="0 0 377.95397 541.6425">
	<path d="m34.29347 243.72906c2.954666 0 5.271999-.53467 6.953333-1.608 1.681333-1.072 2.521333-2.73867 2.521333-4.99867v-.17333c0-2.028-.781333-3.636-2.348-4.82533-1.564-1.18667-4.084-1.78133-7.561333-1.78133h-15.473333v13.38666zm-3.564-24.51333c2.954666 0 5.302666-.50667 7.041333-1.52133 1.738666-1.01334 2.606666-2.65067 2.606666-4.91067v-.17333c0-2.028-.753333-3.57734-2.259999-4.652-1.508-1.07067-3.681334-1.608-6.518667-1.608h-13.213333v12.86533zm-25.3826663-24.6h28.1999993c6.998666 0 12.292 1.79733 15.88 5.39067 2.775999 2.78 4.163999 6.22933 4.163999 10.34266v.17467c0 1.73733-.216 3.27467-.648 4.60667-.432 1.33333-1.007999 2.536-1.727999 3.608-.72 1.07333-1.553334 2.01466-2.504 2.824-.950667.81333-1.973334 1.508-3.065334 2.08666 3.517334 1.33334 6.286667 3.144 8.306667 5.43334 2.018666 2.28933 3.029333 5.46266 3.029333 9.51866v.17333c0 2.78134-.536 5.21467-1.605333 7.30134-1.070667 2.08666-2.604 3.82533-4.601333 5.216-1.996 1.39066-4.397334 2.43466-7.202667 3.12933-2.806667.696-5.914666 1.04267-9.328 1.04267h-28.8973323z" stroke-width="1.33333325" fill="#ffffff"/>
	<path d="m121.13133 224.17053c3.30267 0 5.83734-.78133 7.60667-2.34667 1.76533-1.56533 2.65067-3.65066 2.65067-6.25866v-.17334c0-2.89733-.928-5.07066-2.78267-6.52-1.85467-1.448-4.432-2.17333-7.73467-2.17333h-13.30133v17.472zm-26.946662-29.55467h27.816002c7.70666 0 13.61733 2.05734 17.732 6.172 3.47733 3.47734 5.216 8.11334 5.216 13.908v.17334c0 4.92666-1.20267 8.94-3.60667 12.04-2.40533 3.1-5.55067 5.37599-9.43333 6.82399l14.86533 21.73067h-15.64533l-13.04-19.47067h-10.51867v19.47067h-13.385332z" stroke-width="1.33333325" fill="#ffffff"/>
	<path d="m183.71787 194.61546h13.38666v60.848h-13.38666z" stroke-width="1.33333325" fill="#ffffff"/>
	<path d="m266.906 256.50773c-4.464 0-8.60667-.812-12.43067-2.43467-3.82533-1.62133-7.128-3.83867-9.90933-6.64933-2.78267-2.81067-4.956-6.128-6.52-9.95334-1.564-3.824-2.34667-7.90933-2.34667-12.25599v-.17467c0-4.34533.78267-8.416 2.34667-12.212 1.564-3.79467 3.73733-7.128 6.52-9.99733 2.78133-2.86934 6.11333-5.128 9.996-6.78 3.88133-1.652 8.172-2.47734 12.86533-2.47734 2.83867 0 5.432.232 7.78.69467 2.34667.464 4.476 1.10133 6.38933 1.912 1.912.81333 3.67867 1.79867 5.30267 2.956 1.62 1.16 3.128 2.43467 4.52 3.82533l-8.51867 9.82267c-2.37733-2.14267-4.79733-3.82533-7.25866-5.04133-2.464-1.21734-5.23067-1.82534-8.30134-1.82534-2.55066 0-4.912.492-7.08533 1.47734-2.17333.98533-4.04133 2.34666-5.60533 4.08533-1.56534 1.73867-2.78267 3.752-3.652 6.04133-.86934 2.29067-1.304 4.73734-1.304 7.34534v.17333c0 2.608.43466 5.072 1.304 7.38933.86933 2.31867 2.072 4.34667 3.60666 6.084 1.536 1.73867 3.39067 3.116 5.564 4.12933 2.17334 1.01467 4.564 1.52134 7.172 1.52134 3.47734 0 6.41734-.63734 8.82267-1.912 2.404-1.27334 4.79467-3.01334 7.172-5.216l8.51867 8.60666c-1.564 1.68-3.188 3.18667-4.868 4.51867-1.68134 1.33467-3.52134 2.47867-5.52 3.43467-2 .956-4.188 1.68133-6.56267 2.17333-2.37733.49067-5.04133.73867-7.99733.73867" stroke-width="1.33333325" fill="#ffffff"/>
	<path d="m350.354 256.33333c-4.63734 0-9.18534-.79734-13.64667-2.38934-4.464-1.59466-8.52-4.04266-12.16933-7.34666l7.90933-9.47467c2.78267 2.26 5.63467 4.05733 8.56267 5.38933 2.92533 1.33334 6.128 2 9.60533 2 2.78133 0 4.94-.50666 6.476-1.52133 1.53466-1.01333 2.304-2.41867 2.304-4.216v-.17333c0-.86934-.16134-1.63734-.48-2.304-.32-.66534-.93067-1.28934-1.832-1.86934-.89867-.57866-2.148-1.15866-3.74667-1.73866-1.59733-.57867-3.676-1.18667-6.232-1.82533-3.08-.752-5.868-1.59334-8.36666-2.52134-2.49867-.92533-4.62-2.07066-6.36267-3.432-1.744-1.36133-3.09467-3.056-4.052-5.08533-.96-2.028-1.44-4.54933-1.44-7.564v-.17333c0-2.78134.51867-5.28667 1.55467-7.51867 1.03733-2.23067 2.49066-4.15733 4.36133-5.78133 1.872-1.62134 4.10533-2.868 6.704-3.73734 2.59733-.86933 5.46133-1.304 8.59067-1.304 4.46133 0 8.56266.66667 12.29999 2 3.73867 1.33334 7.172 3.24534 10.30134 5.736l-6.95467 10.084c-2.724-1.85333-5.38933-3.31733-7.99733-4.38933s-5.216-1.608-7.82267-1.608c-2.608 0-4.564.508-5.868 1.52-1.304 1.01467-1.956 2.276-1.956 3.78133v.17467c0 .98533.18934 1.84.56667 2.564.37733.72533 1.05867 1.37733 2.048 1.956.988.58 2.33867 1.12933 4.05333 1.652 1.71467.52133 3.87734 1.12933 6.49333 1.82533 3.07867.812 5.824 1.72534 8.236 2.73734 2.412 1.01466 4.444 2.232 6.10134 3.652 1.656 1.42 2.90533 3.08533 3.748 4.99733.84133 1.912 1.264 4.20266 1.264 6.868v.17333c0 3.01333-.54667 5.69333-1.64134 8.04-1.09466 2.348-2.61866 4.31867-4.576 5.912-1.95866 1.59467-4.29466 2.81067-7.008 3.65067-2.716.84-5.724 1.26-9.02799 1.26" stroke-width="1.33333325" fill="#ffffff"/>
	<path d="m109.17947 420.69919c-16.226669 0-29.381335-13.15467-29.381335-29.38133v-88.14267c0-16.22666 13.154666-29.38 29.381335-29.38 16.22666 0 29.38133 13.15334 29.38133 29.38v88.14267c0 16.22666-13.15467 29.38133-29.38133 29.38133" stroke-width="1.33333325" fill="#284693"/>
	<path d="m188.97693 391.31826c-16.22666 0-29.38133-13.15467-29.38133-29.38133v-58.76134c0-16.22666 13.15467-29.38133 29.38133-29.38133 16.22667 0 29.38134 13.15467 29.38134 29.38133v58.76134c0 16.22666-13.15467 29.38133-29.38134 29.38133" stroke-width="1.33333325" fill="#f9b234"/>
	<path d="m268.77453 361.93746c-16.22667 0-29.38133-13.15467-29.38133-29.38133v-29.38c0-16.22667 13.15466-29.38134 29.38133-29.38134s29.38133 13.15467 29.38133 29.38134v29.38c0 16.22666-13.15466 29.38133-29.38133 29.38133" stroke-width="1.33333325" fill="#e7332a"/>
	<path d="m348.57266 332.55653c-16.22666 0-29.38133-13.15467-29.38133-29.38134 0-16.22666 13.15467-29.38 29.38133-29.38 16.22667 0 29.38133 13.15334 29.38133 29.38 0 16.22667-13.15466 29.38134-29.38133 29.38134" stroke-width="1.33333325" fill="#ffde00"/>
	<path d="m29.381336 450.07999c-16.226666 0-29.3813322-13.15467-29.3813322-29.38133v-117.52267c0-16.22666 13.1546662-29.38133 29.3813322-29.38133 16.226667 0 29.381333 13.15467 29.381333 29.38133v117.52267c0 16.22666-13.154666 29.38133-29.381333 29.38133" stroke-width="1.33333325" fill="#009641"/>
	<path d="m268.77453 29.3808c16.22667 0 29.38133 13.154666 29.38133 29.381333v88.142667c0 16.22666-13.15466 29.38-29.38133 29.38s-29.38133-13.15334-29.38133-29.38v-88.142667c0-16.226667 13.15466-29.381333 29.38133-29.381333" stroke-width="1.33333325" fill="#e7332a"/>
	<path d="m188.97693 58.761733c16.22667 0 29.38134 13.154666 29.38134 29.381332v58.761335c0 16.22666-13.15467 29.38133-29.38134 29.38133-16.22666 0-29.38133-13.15467-29.38133-29.38133v-58.761335c0-16.226666 13.15467-29.381332 29.38133-29.381332" stroke-width="1.33333325" fill="#f9b234"/>
	<path d="m109.17947 88.142532c16.22666 0 29.38133 13.154668 29.38133 29.381328v29.38c0 16.228-13.15467 29.38134-29.38133 29.38134-16.226669 0-29.381335-13.15334-29.381335-29.38134v-29.38c0-16.22666 13.154666-29.381328 29.381335-29.381328" stroke-width="1.33333325" fill="#284693"/>
	<path d="m29.381336 117.52346c16.226667 0 29.381333 13.15467 29.381333 29.38134 0 16.22666-13.154666 29.38-29.381333 29.38-16.226666 0-29.3813322-13.15334-29.3813322-29.38 3.38e-9-16.22667 13.1546662-29.38134 29.3813322-29.38134" stroke-width="1.33333325" fill="#009641"/>
	<path d="m348.572 8.0071993e-7c16.22666 0 29.38133 13.1546662 29.38133 29.3813322v117.522667c0 16.228-13.15467 29.38133-29.38133 29.38133-16.22667 0-29.38134-13.15333-29.38134-29.38133v-117.522667c0-16.226666 13.15467-29.3813322 29.38134-29.3813322" stroke-width="1.33333325" fill="#ffde00"/>
	<path d="m.00040380337 472.05132h20.1186662v4.32534h-15.369333v7.37466h13.632v4.32534h-13.632v11.00533h-4.749333197z" stroke-width="1.33333325" fill="#ffffff"/>
	<path d="m29.460536 472.05146h4.750667v27.03066h-4.750667z" stroke-width="1.33333325" fill="#ffffff"/>
	<path d="m45.289469 472.05132h4.749334v22.70667h14.210666v4.324h-18.96z" stroke-width="1.33333325" fill="#ffffff"/>
	<path d="m73.050535 472.05132h5.058667l8.224 12.78134 8.225333-12.78134h5.06v27.03067h-4.750667v-19.384l-8.534666 12.74267h-.153334l-8.457333-12.66667v19.308h-4.672z" stroke-width="1.33333325" fill="#ffffff"/>
	<path d="m125.86827 472.05132h20.11866v4.32534h-15.36933v7.37466h13.632v4.32534h-13.632v11.00533h-4.74933z" stroke-width="1.33333325" fill="#ffffff"/>
	<path d="m155.05773 472.05132h20.04134v4.248h-15.292v7.028h13.55466v4.248h-13.55466v7.25867h15.48533v4.248h-20.23467z" stroke-width="1.33333325" fill="#ffffff"/>
	<path d="m182.9724 495.14452 2.85733-3.39866c2.58667 2.24 5.21334 3.51333 8.53334 3.51333 2.936 0 4.78933-1.38933 4.78933-3.39733v-.0773c0-1.93066-1.08133-2.97333-6.10133-4.132-5.75334-1.39066-8.99867-3.09066-8.99867-8.07066v-.0773c0-4.63466 3.86267-7.83866 9.22933-7.83866 3.94 0 7.068 1.19733 9.80934 3.39733l-2.54934 3.592c-2.432-1.816-4.86533-2.78133-7.33733-2.78133-2.78 0-4.40133 1.42933-4.40133 3.20666v.076c0 2.08534 1.236 3.01334 6.44933 4.248 5.71467 1.39067 8.64933 3.436 8.64933 7.916v.0773c0 5.05866-3.97733 8.07199-9.65333 8.07199-4.13333 0-8.032-1.43066-11.276-4.32533" stroke-width="1.33333325" fill="#ffffff"/>
	<path d="m219.4216 476.45306h-8.572v-4.40134h21.93333v4.40134h-8.57333v22.62933h-4.788z" stroke-width="1.33333325" fill="#ffffff"/>
	<path d="m258.27906 492.67892 11.49334-8.77333c2.85066-2.23733 3.99066-3.68533 3.99066-5.52667 0-1.97466-1.35866-3.15866-3.464-3.15866-2.06266 0-3.68533 1.228-6.09733 3.99066l-5.74667-4.78c3.28934-4.256 6.57867-6.58133 12.50134-6.58133 6.712 0 11.31733 3.99333 11.31733 9.78267v.088c0 4.91333-2.544 7.45733-7.10667 10.748l-5.264 3.68266h12.67734v6.932h-24.30134z" stroke-width="1.33333325" fill="#ffffff"/>
	<path d="m311.36373 483.81759v-.088c0-4.912-2.28133-8.46667-5.70267-8.46667-3.37733 0-5.61466 3.46667-5.61466 8.38v.0867c0 4.91333 2.28133 8.42133 5.70266 8.42133 3.42 0 5.61467-3.464 5.61467-8.33333m-19.87067 0v-.088c0-8.68533 5.52667-15.96667 14.256-15.96667 8.728 0 14.168 7.19334 14.168 15.88v.0867c0 8.68667-5.48266 15.968-14.256 15.968-8.72933 0-14.168-7.19467-14.168-15.88" stroke-width="1.33333325" fill="#ffffff"/>
	<path d="m333.70026 476.05399-5.17733 1.228-1.62267-6.58 8.99334-2.544h6.184v30.924h-8.37734z" stroke-width="1.33333325" fill="#ffffff"/>
	<path d="m369.36693 478.64186v-.088c0-2.36934-1.71067-4.212-4.38534-4.212-2.676 0-4.3 1.8-4.3 4.168v.088c0 2.324 1.712 4.036 4.38667 4.036 2.67733 0 4.29867-1.75467 4.29867-3.992m-.0867 7.588c-1.88667 1.756-4.124 2.50133-6.536 2.50133-5.92267 0-10.30933-3.728-10.30933-9.73867v-.088c0-6.75466 5.22-11.14133 12.23866-11.14133 4.47467 0 7.10667 1.228 9.432 3.552 2.236 2.23867 3.684 5.74667 3.684 11.40667v.0867c0 10.00134-5.00133 16.88933-14.168 16.88933-4.60666 0-7.896-1.44799-10.748-3.64133l3.99334-5.87866c2.148 1.66666 4.16666 2.456 6.57866 2.456 4.47467 0 5.61467-3.94667 5.83467-6.404" stroke-width="1.33333325" fill="#ffffff"/>
	<path d="m.00040380337 522.84892h3.009333297l9.8986659 12.776v-12.776h3.193334v18.47733h-2.718667l-10.1879996-13.14533v13.14533h-3.194666597z" stroke-width="1.33333325" fill="#ffffff"/>
	<path d="m30.27787 522.84879h3.246666v18.47733h-3.246666z" stroke-width="1.33333325" fill="#ffffff"/>
	<path d="m52.240002 525.85799h-5.859999v-3.00934h14.993333v3.00934h-5.86v15.468h-3.273334z" stroke-width="1.33333325" fill="#ffffff"/>
	<path d="m74.044669 522.84892h13.698666v2.904h-10.452v4.804h9.264v2.90267h-9.264v4.964h10.584v2.90266h-13.830666z" stroke-width="1.33333325" fill="#ffffff"/>
	<path d="m108.96653 532.00839c2.324 0 3.80267-1.21467 3.80267-3.088v-.052c0-1.98-1.42667-3.06267-3.828-3.06267h-4.72533v6.20267zm-7.99733-9.16h8.236c2.32267 0 4.144.688 5.332 1.848.97733 1.004 1.53067 2.376 1.53067 3.98666v.052c0 3.036-1.82134 4.856-4.38134 5.59734l4.988 6.99333h-3.85333l-4.54-6.44h-4.06533v6.44h-3.24667z" stroke-width="1.33333325" fill="#ffffff"/>
	<path stroke-width="1.33333325" fill="#ffffff" d="m139.77253 517.22652 2.90267 1.26667-3.37734 2.56133h-2.48133zm4.61867 14.91467v-.0533c0-3.58933-2.612-6.57333-6.28134-6.57333-3.66933 0-6.22933 2.93067-6.22933 6.52v.0533c0 3.58934 2.612 6.54667 6.28133 6.54667 3.66934 0 6.22934-2.904 6.22934-6.49333m-15.91734 0v-.0533c0-5.2 4.01334-9.556 9.688-9.556 5.676 0 9.636 4.30267 9.636 9.50267v.0533c0 5.2-4.01333 9.55467-9.688 9.55467-5.676 0-9.636-4.30267-9.636-9.50133"/>
	<path d="m161.1552 522.84879h3.24667v18.47733h-3.24667z" stroke-width="1.33333325" fill="#ffffff"/>
	<path d="m194.83653 531.66479h7.81334v3.14h-7.81334z" stroke-width="1.33333325" fill="#ffffff"/>
	<path d="m241.24333 533.38145h-5.14667v5.068h5.384c2.21734 0 3.564-.872 3.564-2.53466v-.0533c0-1.556-1.24133-2.48-3.80133-2.48m2.77067-5.30533c0-1.452-1.16-2.35067-3.24534-2.35067h-4.672v4.91067h4.43334c2.08533 0 3.484-.81867 3.484-2.50667zm-11.112-5.22667h8.288c2.112 0 3.77466.58 4.83066 1.636.81867.81867 1.24134 1.82134 1.24134 3.06267v.052c0 2.21733-1.268 3.40533-2.64 4.11733 2.164.74 3.66933 1.98 3.66933 4.488v.0533c0 3.29866-2.71867 5.06666-6.83733 5.06666h-8.552z" stroke-width="1.33333325" fill="#ffffff"/>
	<path d="m269.1964 532.00839c2.324 0 3.80133-1.21467 3.80133-3.088v-.052c0-1.98-1.42533-3.06267-3.82667-3.06267h-4.72533v6.20267zm-7.99734-9.16h8.236c2.32267 0 4.144.688 5.332 1.848.976 1.004 1.53067 2.376 1.53067 3.98666v.052c0 3.036-1.82133 4.856-4.38267 5.59734l4.98934 6.99333h-3.85334l-4.54-6.44h-4.06533v6.44h-3.24667z" stroke-width="1.33333325" fill="#ffffff"/>
	<path d="m300.71466 533.98825-3.19466-7.39066-3.16667 7.39066zm-4.64533-11.272h3.00933l8.12934 18.60934h-3.43067l-1.87467-4.46h-8.73733l-1.9 4.46h-3.32667z" stroke-width="1.33333325" fill="#ffffff"/>
	<path d="m318.95613 538.92439 10.90133-13.19867h-10.55866v-2.87733h14.808v2.40266l-10.928 13.19867h10.928v2.876h-15.15067z" stroke-width="1.33333325" fill="#ffffff"/>
	<path d="m347.5712 522.84879h3.24666v18.47733h-3.24666z" stroke-width="1.33333325" fill="#ffffff"/>
	<path d="m364.99266 522.84892h3.24667v15.52133h9.71466v2.956h-12.96133z" stroke-width="1.33333325" fill="#ffffff"/>
</svg>
