<svg xmlns="http://www.w3.org/2000/svg" height="376.8737px" width="812.95477px" version="1.1" viewBox="0 0 812.95474 376.8737">
	<path d="m340.85399 212.44399 1.284-1.52533c1.16134 1.00533 2.34 1.57733 3.83067 1.57733 1.316 0 2.148-.624 2.148-1.524v-.036c0-.86533-.484-1.33467-2.73733-1.85333-2.584-.62534-4.04-1.388-4.04-3.624v-.0347c0-2.08 1.73333-3.51867 4.144-3.51867 1.768 0 3.172.53734 4.40133 1.52534l-1.14267 1.612c-1.092-.81467-2.18533-1.248-3.29466-1.248-1.24667 0-1.97467.64133-1.97467 1.43866v.0347c0 .936.55467 1.352 2.89467 1.90667 2.56533.62533 3.88266 1.54266 3.88266 3.55333v.0347c0 2.27066-1.78533 3.62266-4.33333 3.62266-1.856 0-3.60533-.64-5.06267-1.94133" fill="#ffffff"/>
	<path d="m356.22893 202.07812h8.996v1.908h-6.86267v3.15467h6.08267v1.90667h-6.08267v3.25866h6.94933v1.90667h-9.08266z" fill="#ffffff"/>
	<path d="m375.92039 208.38799c1.612 0 2.61734-.90133 2.61734-2.16667v-.0333c0-1.42267-1.02267-2.168-2.61734-2.168h-2.47733v4.368zm-4.61066-6.30933h4.784c2.844 0 4.612 1.61333 4.612 4.05733v.0333c0 2.72134-2.18534 4.14267-4.85467 4.14267h-2.408v3.9h-2.13333z" fill="#ffffff"/>
	<path d="m389.33573 204.05466h-3.84934v-1.976h9.84667v1.976h-3.848v10.15733h-2.14933z" fill="#ffffff"/>
	<path d="m401.05319 202.07812h8.996v1.908h-6.86266v3.15467h6.08266v1.90667h-6.08266v3.25866h6.94933v1.90667h-9.08267z" fill="#ffffff"/>
	<path d="m416.13253 202.07812h2.27066l3.69334 5.73867 3.69066-5.73867h2.27067v12.13467h-2.13067v-8.70267l-3.83066 5.72h-.0707l-3.796-5.684v8.66667h-2.09733z" fill="#ffffff"/>
	<path d="m440.12212 208.99479h-3.38v3.328h3.536c1.456 0 2.34-.572 2.34-1.664v-.0333c0-1.024-.81466-1.63067-2.496-1.63067m1.82-3.484c0-.95333-.76266-1.54267-2.132-1.54267h-3.068v3.224h2.91067c1.37067 0 2.28933-.53733 2.28933-1.64666zm-7.29733-3.432h5.44267c1.38666 0 2.47866.38133 3.172 1.07467.53733.53733.81466 1.196.81466 2.01066v.0347c0 1.456-.832 2.236-1.73333 2.704 1.42133.48533 2.40933 1.3 2.40933 2.948v.0333c0 2.16667-1.78533 3.328-4.48933 3.328h-5.616z" fill="#ffffff"/>
	<path d="m450.62612 202.07812h8.996v1.908h-6.86266v3.15467h6.08266v1.90667h-6.08266v3.25866h6.94933v1.90667h-9.08267z" fill="#ffffff"/>
	<path d="m470.95812 208.09372c1.52534 0 2.496-.79733 2.496-2.028v-.0347c0-1.3-.936-2.012-2.51466-2.012h-3.10134v4.07466zm-5.252-6.016h5.408c1.52534 0 2.72134.452 3.50134 1.21334.64133.66 1.00533 1.56 1.00533 2.61866v.0347c0 1.99333-1.196 3.18933-2.87733 3.67467l3.276 4.59333h-2.532l-2.98-4.22933h-2.66934v4.22933h-2.132z" fill="#ffffff"/>
	<path d="m493.22239 212.53119 4.17867-3.55333c1.664-1.42134 2.27066-2.18534 2.27066-3.276 0-1.19734-.85066-1.88934-1.96-1.88934-1.10933 0-1.87066.60667-2.79066 1.82l-1.52534-1.196c1.16134-1.612 2.30534-2.532 4.472-2.532 2.376 0 4.004 1.45734 4.004 3.624v.0333c0 1.908-1.00533 2.94666-3.15466 4.69866l-2.496 2.07867h5.772v1.87333h-8.77067z" fill="#ffffff"/>
	<path d="m507.20946 212.28906 1.49066-1.38667c.868 1.02267 1.83734 1.59333 3.19067 1.59333 1.19467 0 2.09733-.728 2.09733-1.83733v-.0333c0-1.19734-1.092-1.872-2.792-1.872h-.988l-.34666-1.33467 3.276-3.48533h-5.25067v-1.85467h8.024v1.59467l-3.38 3.468c1.83867.22533 3.572 1.16133 3.572 3.39733v.0347c0 2.236-1.716 3.848-4.248 3.848-2.11467 0-3.62133-.884-4.64533-2.132" fill="#ffffff"/>
	<path d="m534.62346 211.68226v-4.81867h-1.16134v-1.804h1.16134v-2.51333h2.096v2.51333h2.46266v1.804h-2.46266v4.48933c0 .81334.41733 1.14267 1.128 1.14267.468 0 .884-.104 1.3-.31067v1.716c-.52.29467-1.09334.468-1.88934.468-1.544 0-2.63466-.676-2.63466-2.68666" fill="#ffffff"/>
	<path d="m551.67946 209.68879v-.0347c0-1.612-1.16134-2.94666-2.808-2.94666-1.68134 0-2.75734 1.31733-2.75734 2.91066v.036c0 1.59467 1.16134 2.92934 2.792 2.92934 1.69734 0 2.77334-1.31734 2.77334-2.89467m-7.66134 0v-.0347c0-2.61733 2.07867-4.784 4.888-4.784 2.80667 0 4.87067 2.13067 4.87067 4.748v.036c0 2.6-2.08 4.76667-4.90533 4.76667-2.79067 0-4.85334-2.132-4.85334-4.732" fill="#ffffff"/>
	<path d="m581.76145 208.17972v-.0333c0-2.35867-1.716-4.31733-4.12666-4.31733-2.408 0-4.08934 1.92533-4.08934 4.28133v.036c0 2.356 1.716 4.29733 4.12534 4.29733 2.40933 0 4.09066-1.90533 4.09066-4.264m-10.45333 0v-.0333c0-3.416 2.636-6.27467 6.36267-6.27467 3.72666 0 6.32666 2.82534 6.32666 6.23867v.036c0 3.41333-2.63466 6.27467-6.36266 6.27467-3.72667 0-6.32667-2.82534-6.32667-6.24134" fill="#ffffff"/>
	<path d="m589.50892 208.17972v-.0333c0-3.44933 2.58267-6.27467 6.25733-6.27467 2.23734 0 3.58934.78 4.75067 1.88934l-1.36933 1.576c-.97067-.90134-2.01067-1.508-3.39734-1.508-2.30666 0-4.004 1.90666-4.004 4.28133v.036c0 2.37467 1.68 4.29733 4.004 4.29733 1.49067 0 2.444-.588 3.484-1.56l1.368 1.38667c-1.264 1.31867-2.65066 2.15067-4.92133 2.15067-3.536 0-6.172-2.75734-6.172-6.24134" fill="#ffffff"/>
	<path d="m609.28625 204.05466h-3.84933v-1.976h9.84667v1.976h-3.848v10.15733h-2.14934z" fill="#ffffff"/>
	<path d="m630.26012 208.17972v-.0333c0-2.35867-1.716-4.31733-4.12533-4.31733-2.40934 0-4.09067 1.92533-4.09067 4.28133v.036c0 2.356 1.716 4.29733 4.12533 4.29733 2.40934 0 4.09067-1.90533 4.09067-4.264m-10.45333 0v-.0333c0-3.416 2.636-6.27467 6.36266-6.27467 3.72667 0 6.32667 2.82534 6.32667 6.23867v.036c0 3.41333-2.63467 6.27467-6.36133 6.27467-3.728 0-6.328-2.82534-6.328-6.24134" fill="#ffffff"/>
	<path d="m644.02319 208.99479h-3.38v3.328h3.536c1.456 0 2.34-.572 2.34-1.664v-.0333c0-1.024-.81467-1.63067-2.496-1.63067m1.82-3.484c0-.95333-.76267-1.54267-2.132-1.54267h-3.068v3.224h2.91066c1.37067 0 2.28934-.53733 2.28934-1.64666zm-7.29734-3.432h5.44267c1.38667 0 2.47867.38133 3.172 1.07467.53733.53733.81467 1.196.81467 2.01066v.0347c0 1.456-.832 2.236-1.73334 2.704 1.42134.48533 2.40934 1.3 2.40934 2.948v.0333c0 2.16667-1.78534 3.328-4.48934 3.328h-5.616z" fill="#ffffff"/>
	<path d="m654.52585 202.07812h8.996v1.908h-6.86266v3.15467h6.08266v1.90667h-6.08266v3.25866h6.94933v1.90667h-9.08267z" fill="#ffffff"/>
	<path d="m674.85919 208.09372c1.52533 0 2.496-.79733 2.496-2.028v-.0347c0-1.3-.936-2.012-2.51467-2.012h-3.10133v4.07466zm-5.252-6.016h5.408c1.52533 0 2.72133.452 3.50133 1.21334.64133.66 1.00533 1.56 1.00533 2.61866v.0347c0 1.99333-1.196 3.18933-2.87733 3.67467l3.276 4.59333h-2.532l-2.98-4.22933h-2.66933v4.22933h-2.132z" fill="#ffffff"/>
	<path d="m704.36825 205.97919v-.0347c0-1.26666-.988-2.236-2.53067-2.236-1.508 0-2.40933 1.00534-2.40933 2.252v.036c0 1.26534.96933 2.16667 2.47867 2.16667 1.54266 0 2.46133-1.00533 2.46133-2.184m.0867 2.66933c-.676.81467-1.61334 1.3-2.86 1.3-2.584 0-4.3-1.508-4.3-3.848v-.036c0-2.37333 1.83867-4.19333 4.52533-4.19333 1.52533 0 2.51333.43333 3.38 1.28267.884.90133 1.456 2.236 1.456 4.628v.0347c0 3.9-1.92533 6.604-5.20133 6.604-1.68 0-2.85867-.60666-3.88267-1.456l1.16134-1.62933c.91999.76267 1.73466 1.144 2.77333 1.144 2.15066 0 2.93066-2.21867 2.948-3.83067" fill="#ffffff"/>
	<path d="m28.714535 204.08586c2.473333 0 4.414667-.448 5.822667-1.34667 1.406666-.89733 2.110666-2.292 2.110666-4.184v-.14667c0-1.69733-.654666-3.044-1.965333-4.03866-1.310667-.99467-3.421333-1.492-6.332-1.492h-12.957333v11.208zm-2.985333-20.52667c2.474666 0 4.441333-.42267 5.897333-1.27333 1.454667-.848 2.182667-2.22 2.182667-4.112v-.14534c0-1.69733-.630667-2.996-1.893334-3.89466-1.262666-.89734-3.081333-1.34667-5.458666-1.34667h-11.064v10.772zm-21.2546663-20.59866h23.6146663c5.861333 0 10.293333 1.50533 13.297333 4.51333 2.324 2.32933 3.485333 5.21733 3.485333 8.66266v.144c0 1.456-.18 2.74267-.541333 3.85867-.362667 1.11733-.844 2.124-1.446667 3.02133-.602667.89734-1.301333 1.68534-2.097333 2.36534s-1.652 1.26133-2.566667 1.74666c2.945333 1.11734 5.264 2.632 6.956 4.54934 1.689333 1.91733 2.536 4.57333 2.536 7.96933v.14667c0 2.32933-.448 4.36666-1.345333 6.11466-.896 1.74534-2.18 3.20134-3.850667 4.36667-1.672 1.164-3.682666 2.03733-6.032 2.62-2.350666.58133-4.953333.87333-7.810666.87333h-24.1986663z" fill="#ffffff"/>
	<path d="m101.42813 187.70959c2.76534 0 4.888-.65467 6.368-1.96667 1.48-1.30933 2.22-3.056 2.22-5.23866v-.14667c0-2.42533-.77733-4.24533-2.32933-5.45867-1.55333-1.21333-3.712-1.82-6.47733-1.82h-11.137336v14.63067zm-22.565329-24.74933h23.293329c6.452 0 11.40134 1.724 14.848 5.168 2.91067 2.912 4.36667 6.796 4.36667 11.648v.144c0 4.12533-1.00667 7.48533-3.02 10.08266-2.01467 2.596-4.648 4.50134-7.89733 5.71334l12.44666 18.196h-13.10266l-10.917337-16.304h-8.807999v16.304h-11.209333z" fill="#ffffff"/>
	<path d="m153.8344 162.96039h11.208v50.952h-11.208z" fill="#ffffff"/>
	<path d="m223.492 214.78639c-3.73867 0-7.20667-.68133-10.40934-2.03867-3.20266-1.35733-5.968-3.21333-8.29733-5.568-2.32933-2.35333-4.14933-5.132-5.46-8.33466-1.30933-3.20134-1.96533-6.62267-1.96533-10.26134v-.14666c0-3.63867.656-7.048 1.96533-10.22667 1.31067-3.17733 3.13067-5.968 5.46-8.37067 2.32933-2.40266 5.12-4.29466 8.37067-5.67733 3.25066-1.38266 6.84133-2.07333 10.772-2.07333 2.376 0 4.54933.19333 6.51466.58133 1.96534.38934 3.748.92134 5.35067 1.60134 1.6.68 3.08 1.504 4.44 2.47466 1.356.97067 2.62 2.03867 3.78533 3.20267l-7.13333 8.22533c-1.99067-1.79467-4.01733-3.20267-6.08-4.22133-2.06267-1.02-4.37867-1.528-6.95067-1.528-2.13466 0-4.11333.412-5.932 1.236-1.82.82533-3.384 1.96533-4.69333 3.42133-1.312 1.45467-2.32933 3.14267-3.05733 5.05867-.728 1.91733-1.09334 3.96666-1.09334 6.15066v.14534c0 2.184.36534 4.24666 1.09334 6.18666.728 1.94134 1.73466 3.63867 3.01866 5.09467 1.28534 1.456 2.84 2.60933 4.66 3.45867 1.82.84933 3.82134 1.27333 6.004 1.27333 2.912 0 5.37467-.53333 7.388-1.60133 2.01334-1.06667 4.01467-2.52267 6.00534-4.368l7.13333 7.20666c-1.30933 1.40667-2.66933 2.66934-4.07733 3.78534-1.40534 1.11733-2.94667 2.07333-4.62 2.87466-1.67467.8-3.50667 1.408-5.496 1.82-1.99067.412-4.22267.61867-6.696.61867" fill="#ffffff"/>
	<path d="m293.36693 214.64066c-3.88267 0-7.692-.668-11.42667-2.00134-3.73866-1.33466-7.13466-3.38533-10.19066-6.15066l6.62266-7.93334c2.32934 1.89067 4.71867 3.396 7.16934 4.512 2.45066 1.116 5.132 1.67334 8.044 1.67334 2.328 0 4.136-.42267 5.42133-1.27334 1.28533-.848 1.93066-2.024 1.93066-3.52933v-.14667c0-.728-.136-1.36933-.40266-1.928-.268-.55733-.77867-1.08-1.532-1.56533-.75467-.484-1.80133-.96933-3.13867-1.456-1.33866-.484-3.07866-.99333-5.21866-1.528-2.58-.63067-4.91334-1.33467-7.00534-2.11067-2.09333-.776-3.868-1.73466-5.328-2.87466s-2.59066-2.55867-3.39333-4.25867c-.80267-1.69867-1.20533-3.80933-1.20533-6.33333v-.144c0-2.32934.43333-4.428 1.30133-6.29734.86933-1.86666 2.08533-3.48133 3.652-4.83999 1.56667-1.35734 3.43867-2.40134 5.61467-3.12934 2.17333-.728 4.572-1.09333 7.192-1.09333 3.73733 0 7.16933.55867 10.30133 1.67467 3.128 1.11733 6.004 2.71866 8.624 4.80533l-5.82267 8.44266c-2.28267-1.552-4.51333-2.77733-6.696-3.676-2.184-.89733-4.368-1.34666-6.55066-1.34666-2.184 0-3.82267.42533-4.91467 1.27333-1.09067.85067-1.636 1.90533-1.636 3.16667v.14666c0 .82534.15733 1.54.47333 2.14667s.88667 1.15333 1.71467 1.63733c.82667.48534 1.95867.94534 3.39467 1.384 1.43466.436 3.24666.94534 5.436 1.528 2.57866.68 4.87733 1.444 6.89733 2.292 2.02.85067 3.72133 1.86934 5.10933 3.05734 1.38533 1.18933 2.432 2.584 3.13733 4.18533.70534 1.60133 1.06 3.51867 1.06 5.75067v.144c0 2.52533-.46 4.768-1.376 6.73333-.916 1.96667-2.192 3.616-3.832 4.95067-1.64 1.33466-3.596 2.35466-5.868 3.056-2.27333.70266-4.79333 1.056-7.55866 1.056" fill="#ffffff"/>
	<path d="m91.419067 352.27212c-13.586666 0-24.601333-11.016-24.601333-24.60267v-73.80666c0-13.58667 11.014667-24.60133 24.601333-24.60133 13.588003 0 24.602663 11.01466 24.602663 24.60133v73.80666c0 13.58667-11.01466 24.60267-24.602663 24.60267" fill="#284693"/>
	<path d="m158.238 327.66919c-13.58667 0-24.60133-11.01467-24.60133-24.60133v-49.204c0-13.588 11.01466-24.60267 24.60133-24.60267 13.58666 0 24.60133 11.01467 24.60133 24.60267v49.204c0 13.58666-11.01467 24.60133-24.60133 24.60133" fill="#f9b234"/>
	<path d="m225.05573 303.06772c-13.58667 0-24.60133-11.01466-24.60133-24.60133v-24.60267c0-13.588 11.01466-24.60133 24.60133-24.60133 13.588 0 24.60267 11.01333 24.60267 24.60133v24.60267c0 13.58667-11.01467 24.60133-24.60267 24.60133" fill="#e7332a"/>
	<path d="m291.8748 278.46612c-13.58667 0-24.60134-11.016-24.60134-24.60266 0-13.588 11.01467-24.60134 24.60134-24.60134 13.58666 0 24.60133 11.01334 24.60133 24.60134 0 13.58666-11.01467 24.60266-24.60133 24.60266" fill="#ffde00"/>
	<path d="m24.601335 376.87372c-13.586666 0-24.60133252-11.01467-24.60133252-24.60133v-98.40933c-5.399e-10-13.58667 11.01466652-24.60134 24.60133252-24.60134 13.586667 0 24.601333 11.01467 24.601333 24.60134v98.40933c0 13.58666-11.014666 24.60133-24.601333 24.60133" fill="#009641"/>
	<path d="m225.05573 24.602795c13.588 0 24.60267 11.014667 24.60267 24.601333v73.806662c0 13.58667-11.01467 24.60134-24.60267 24.60134-13.58667 0-24.60133-11.01467-24.60133-24.60134v-73.806662c0-13.586666 11.01466-24.601333 24.60133-24.601333" fill="#e7332a"/>
	<path d="m158.238 49.204395c13.58666 0 24.60133 11.014666 24.60133 24.601332v49.204003c0 13.588-11.01467 24.60266-24.60133 24.60266-13.58667 0-24.60133-11.01466-24.60133-24.60266v-49.204003c0-13.586666 11.01466-24.601332 24.60133-24.601332" fill="#f9b234"/>
	<path d="m91.419067 73.805994c13.588003 0 24.602663 11.016 24.602663 24.602666v24.60133c0 13.588-11.01466 24.60134-24.602663 24.60134-13.586666 0-24.601333-11.01334-24.601333-24.60134v-24.60133c0-13.586666 11.014667-24.602666 24.601333-24.602666" fill="#284693"/>
	<path d="m24.601335 98.408793c13.586667 0 24.601333 11.014667 24.601333 24.601337 0 13.588-11.014666 24.60133-24.601333 24.60133-13.586666 0-24.60133252-11.01333-24.60133252-24.60133-5.399e-10-13.58667 11.01466652-24.601337 24.60133252-24.601337" fill="#009641"/>
	<path d="m291.8748-.0000040888901c13.58666 0 24.60133 11.01600009 24.60133 24.60266609v98.407998c0 13.58667-11.01467 24.60133-24.60133 24.60133-13.58667 0-24.60134-11.01466-24.60134-24.60133v-98.407998c0-13.586666 11.01467-24.60266609 24.60134-24.60266609" fill="#ffde00"/>
	<path d="m340.85399 162.64586h14.62134v3.14267h-11.16934v5.36133h9.90667v3.14133h-9.90667v7.99867h-3.452z" fill="#ffffff"/>
	<path d="m362.26239 162.64573h3.452v19.64399h-3.452z" fill="#ffffff"/>
	<path d="m373.76666 162.64586h3.45067v16.50133h10.32666v3.14267h-13.77733z" fill="#ffffff"/>
	<path d="m393.93986 162.64586h3.67733l5.976 9.28933 5.97867-9.28933h3.676v19.644h-3.452v-14.08667l-6.20267 9.26h-.112l-6.14533-9.204v14.03067h-3.396z" fill="#ffffff"/>
	<path d="m432.32399 162.64586h14.62133v3.14267h-11.16933v5.36133h9.90667v3.14133h-9.90667v7.99867h-3.452z" fill="#ffffff"/>
	<path d="m453.53626 162.64586h14.56533v3.08667h-11.11333v5.10799h9.85066v3.08667h-9.85066v5.276h11.252v3.08667h-14.704z" fill="#ffffff"/>
	<path d="m473.82266 179.42839 2.076-2.47067c1.88 1.628 3.788 2.55334 6.20133 2.55334 2.13467 0 3.48-1.008 3.48-2.468v-.056c0-1.404-.78533-2.16134-4.43333-3.00267-4.18134-1.012-6.53867-2.24667-6.53867-5.86533v-.056c0-3.368 2.80533-5.69733 6.70667-5.69733 2.864 0 5.136.86933 7.128 2.46933l-1.852 2.61067c-1.768-1.32-3.536-2.02134-5.332-2.02134-2.02 0-3.19867 1.03867-3.19867 2.32934v.056c0 1.516.89867 2.18933 4.68533 3.08799 4.15467 1.00934 6.28667 2.49734 6.28667 5.752v.056c0 3.67734-2.89067 5.86534-7.01467 5.86534-3.00266 0-5.83733-1.03867-8.19466-3.14267" fill="#ffffff"/>
	<path d="m500.31092 165.84506h-6.22933v-3.19867h15.93867v3.19867h-6.23067v16.44533h-3.47867z" fill="#ffffff"/>
	<path d="m538.29146 168.83333h2.188l7.192 9.28399v-9.28399h2.32133v13.42666h-1.976l-7.404-9.552v9.552h-2.32133z" fill="#ffffff"/>
	<path d="m560.29572 168.83373h2.36v13.42666h-2.36z" fill="#ffffff"/>
	<path d="m576.25492 171.01946h-4.25733v-2.18667h10.896v2.18667h-4.26v11.24133h-2.37867z" fill="#ffffff"/>
	<path d="m592.09999 168.83333h9.95733v2.10933h-7.59733v3.492h6.732v2.10933h-6.732v3.60667h7.692v2.10933h-10.052z" fill="#ffffff"/>
	<path d="m617.47892 175.48959c1.68933 0 2.76267-.88267 2.76267-2.24533v-.0373c0-1.43866-1.036-2.22533-2.78134-2.22533h-3.43333v4.508zm-5.81067-6.656h5.984c1.688 0 3.012.49867 3.87467 1.34267.70933.72933 1.11333 1.72666 1.11333 2.89733v.0373c0 2.20534-1.324 3.52934-3.18533 4.068l3.62533 5.08134h-2.8l-3.29866-4.68h-2.95467v4.68h-2.35867z" fill="#ffffff"/>
	<path d="m639.86559 164.74733 2.11066.92-2.456 1.86133h-1.80133zm3.35866 10.83866v-.0387c0-2.608-1.9-4.776-4.56666-4.776-2.66534 0-4.528 2.128-4.528 4.73734v.0387c0 2.60934 1.9 4.75734 4.56666 4.75734 2.66534 0 4.528-2.11067 4.528-4.71867m-11.568 0v-.0387c0-3.77866 2.91467-6.94399 7.04-6.94399 4.124 0 7.00134 3.12533 7.00134 6.90533v.0387c0 3.77867-2.91467 6.944-7.04 6.944-4.124 0-7.00134-3.12666-7.00134-6.90533" fill="#ffffff"/>
	<path d="m655.40505 168.83373h2.36v13.42666h-2.36z" fill="#ffffff"/>
	<path d="m679.88239 175.23906h5.67866v2.28266h-5.67866z" fill="#ffffff"/>
	<path d="m713.60652 176.48692h-3.74134v3.684h3.91334c1.612 0 2.58933-.63466 2.58933-1.84133v-.0387c0-1.132-.9-1.804-2.76133-1.804m2.01466-3.856c0-1.05466-.844-1.70666-2.36-1.70666h-3.396v3.568h3.22267c1.516 0 2.53333-.59467 2.53333-1.82134zm-8.076-3.79733h6.02267c1.53467 0 2.74267.42134 3.51067 1.188.59466.596.90133 1.32533.90133 2.22533v.04c0 1.61067-.92 2.47334-1.91733 2.992 1.572.53734 2.66666 1.43867 2.66666 3.26134v.0373c0 2.39733-1.97733 3.68267-4.96933 3.68267h-6.21467z" fill="#ffffff"/>
	<path d="m733.92038 175.48959c1.68934 0 2.76267-.88267 2.76267-2.24533v-.0373c0-1.43866-1.036-2.22533-2.78133-2.22533h-3.43334v4.508zm-5.81066-6.656h5.984c1.688 0 3.012.49867 3.87466 1.34267.70934.72933 1.11334 1.72666 1.11334 2.89733v.0373c0 2.20534-1.324 3.52934-3.18534 4.068l3.62534 5.08134h-2.8l-3.29867-4.68h-2.95467v4.68h-2.35866z" fill="#ffffff"/>
	<path d="m756.82532 176.92839-2.32134-5.37067-2.30133 5.37067zm-3.376-8.192h2.18666l5.908 13.524h-2.49333l-1.36267-3.24133h-6.348l-1.38133 3.24133h-2.41733z" fill="#ffffff"/>
	<path d="m770.08185 180.51559 7.92267-9.59067h-7.67334v-2.09199h10.76134v1.74533l-7.94134 9.592h7.94134v2.09066h-11.01067z" fill="#ffffff"/>
	<path d="m790.87572 168.83373h2.36v13.42666h-2.36z" fill="#ffffff"/>
	<path d="m803.53745 168.83333h2.36v11.27866h7.05733v2.148h-9.41733z" fill="#ffffff"/>
	<path d="m724.83185 209.60159 8.352-6.376c2.072-1.62533 2.9-2.67733 2.9-4.016 0-1.43467-.98667-2.296-2.51733-2.296-1.49734 0-2.67734.892-4.42934 2.90133l-4.17733-3.47466c2.39067-3.09334 4.78133-4.78134 9.084-4.78134 4.87733 0 8.22533 2.90134 8.22533 7.108v.064c0 3.56934-1.84933 5.41867-5.164 7.80934l-3.82533 2.67866h9.212v5.036h-17.66z" fill="#ffffff"/>
	<path d="m763.40985 203.16146v-.064c0-3.57067-1.65867-6.152-4.144-6.152-2.45467 0-4.08133 2.51866-4.08133 6.088v.064c0 3.57066 1.65733 6.12133 4.144 6.12133 2.48666 0 4.08133-2.51867 4.08133-6.05733m-14.44133 0v-.064c0-6.31067 4.01733-11.60267 10.36-11.60267 6.344 0 10.296 5.228 10.296 11.53867v.064c0 6.31333-3.984 11.604-10.35867 11.604-6.344 0-10.29733-5.228-10.29733-11.54" fill="#ffffff"/>
	<path d="m779.64172 197.51946-3.76134.89333-1.18-4.78267 6.53467-1.84933h4.49467v22.47467h-6.088z" fill="#ffffff"/>
	<path d="m805.56092 199.40106v-.0653c0-1.72133-1.24267-3.06-3.18667-3.06-1.94533 0-3.124 1.308-3.124 3.02934v.064c0 1.688 1.24267 2.932 3.18667 2.932 1.94533 0 3.124-1.27467 3.124-2.9m-.0627 5.51466c-1.37067 1.27467-2.99733 1.816-4.74933 1.816-4.304 0-7.492-2.70933-7.492-7.07733v-.0627c0-4.90933 3.79333-8.09733 8.89333-8.09733 3.252 0 5.164.892 6.85467 2.58267 1.62533 1.62666 2.67733 4.176 2.67733 8.288v.064c0 7.268-3.63467 12.27333-10.296 12.27333-3.348 0-5.73867-1.052-7.81067-2.64667l2.90134-4.272c1.56133 1.21067 3.028 1.78534 4.78 1.78534 3.25333 0 4.08133-2.868 4.24133-4.65334" fill="#ffffff"/>
</svg>
