<svg xmlns="http://www.w3.org/2000/svg" height="376.87238px" width="821.71875px" version="1.1" viewBox="0 0 821.71872 376.87236">
	<path d="m350.22892 213.44653 4.81867-4.09867c1.92133-1.64133 2.62-2.52133 2.62-3.78 0-1.38-.97867-2.18-2.25867-2.18s-2.16.69867-3.22 2.09867l-1.76133-1.37867c1.34-1.86 2.66133-2.92 5.16133-2.92 2.73867 0 4.61867 1.67867 4.61867 4.17867v.0413c0 2.19867-1.16 3.4-3.63867 5.41867l-2.88 2.4h6.65867v2.16h-10.11867z" fill="#ffffff"/>
	<path d="m364.36825 213.16666 1.72-1.59866c1 1.18 2.12 1.84 3.68 1.84 1.38 0 2.42-.84 2.42-2.12v-.04c0-1.38134-1.26-2.16134-3.22-2.16134h-1.13866l-.40134-1.54 3.78-4.01866h-6.06v-2.14h9.26v1.84l-3.9 4c2.12.25866 4.12 1.34 4.12 3.91866v.0413c0 2.57866-1.98 4.44-4.89866 4.44-2.44134 0-4.18-1.02134-5.36134-2.46134" fill="#ffffff"/>
	<path d="m386.72772 213.3476 1.48-1.76c1.34 1.16 2.70133 1.82 4.42 1.82 1.52 0 2.48-.72 2.48-1.76v-.0413c0-1-.56-1.53866-3.16-2.13866-2.97867-.72-4.65867-1.6-4.65867-4.18v-.04c0-2.4 1.99867-4.06 4.77867-4.06 2.04 0 3.66.62 5.08 1.76l-1.32 1.86c-1.26-.94-2.51867-1.44-3.79867-1.44-1.44 0-2.28.74-2.28 1.66v.04c0 1.08.63867 1.56 3.34 2.19866 2.95867.72 4.47867 1.78 4.47867 4.10134v.04c0 2.62-2.06 4.18-5 4.18-2.14 0-4.15867-.74-5.84-2.24" fill="#ffffff"/>
	<path d="m402.46732 201.388h10.38v2.19866h-7.91867v3.64134h7.01867v2.19866h-7.01867v3.76134h8.01867v2.19866h-10.48z" fill="#ffffff"/>
	<path d="m421.30705 203.668h-4.44v-2.28h11.35867v2.28h-4.43867v11.71866h-2.48z" fill="#ffffff"/>
	<path d="m432.82665 201.388h10.38v2.19866h-7.91866v3.64134h7.01866v2.19866h-7.01866v3.76134h8.01866v2.19866h-10.48z" fill="#ffffff"/>
	<path d="m448.22638 201.388h2.62l4.26 6.62 4.26-6.62h2.62v13.99866h-2.46v-10.03866l-4.42 6.59866h-.0787l-4.38134-6.55866v9.99866h-2.42z" fill="#ffffff"/>
	<path d="m473.90612 209.3672h-3.9v3.84h4.08c1.68 0 2.7-.66 2.7-1.92v-.04c0-1.18-.94-1.88-2.88-1.88m2.1-4.02c0-1.1-.88-1.78-2.46134-1.78h-3.53866v3.72h3.36c1.58 0 2.64-.61867 2.64-1.89867zm-8.42-3.95867h6.28c1.6 0 2.86.44 3.66 1.23867.62.62.94 1.38.94 2.32133v.0387c0 1.68133-.96 2.58-2 3.12 1.63866.56133 2.78 1.5 2.78 3.4v.04c0 2.5-2.06 3.84-5.18 3.84h-6.48z" fill="#ffffff"/>
	<path d="m490.08572 208.3268c1.76 0 2.88-.91867 2.88-2.34v-.0387c0-1.5-1.07867-2.32-2.9-2.32h-3.57867v4.69867zm-6.06-6.93867h6.24c1.76 0 3.14.52 4.04 1.4.74.76 1.16 1.79867 1.16 3.01867v.0413c0 2.29867-1.38 3.67867-3.32 4.23867l3.78 5.3h-2.92l-3.44-4.87867h-3.07867v4.87867h-2.46133z" fill="#ffffff"/>
	<path d="m511.92558 208.42706v-.04c0-2.71866-1.98-4.98-4.76-4.98s-4.71866 2.22-4.71866 4.94v.04c0 2.72 1.97866 4.96 4.75866 4.96s4.72-2.2 4.72-4.92m-12.06 0v-.04c0-3.93866 3.04-7.24 7.34-7.24s7.3 3.26 7.3 7.2v.04c0 3.94-3.04 7.24-7.34 7.24s-7.3-3.26-7.3-7.2" fill="#ffffff"/>
	<path d="m535.48545 211.5468 7.14-3.18-7.14-3.19867v-2.32l9.56 4.41867v2.16l-9.56 4.42133z" fill="#ffffff"/>
	<path d="m573.70545 205.888v-.04c0-1.46-1.14-2.58134-2.92-2.58134-1.74 0-2.78 1.16-2.78 2.6v.0413c0 1.45866 1.12 2.5 2.86 2.5 1.78 0 2.84-1.16 2.84-2.52m.1 3.08c-.78.94-1.86 1.5-3.3 1.5-2.98 0-4.96-1.74-4.96-4.44134v-.04c0-2.73866 2.12-4.84 5.22-4.84 1.76 0 2.9.5 3.9 1.48134 1.01866 1.04 1.67866 2.57866 1.67866 5.34v.04c0 4.5-2.22 7.62-5.99999 7.62-1.93867 0-3.29867-.70134-4.47867-1.68134l1.34-1.87866c1.06.87866 2 1.31866 3.2 1.31866 2.48 0 3.38-2.56 3.4-4.41866" fill="#ffffff"/>
	<path d="m600.72505 208.42706v-.04c0-2.71866-1.98-4.98-4.76-4.98s-4.71867 2.22-4.71867 4.94v.04c0 2.72 1.97867 4.96 4.75867 4.96s4.72-2.2 4.72-4.92m-12.06 0v-.04c0-3.93866 3.04-7.24 7.34-7.24s7.3 3.26 7.3 7.2v.04c0 3.94-3.04 7.24-7.34 7.24s-7.3-3.26-7.3-7.2" fill="#ffffff"/>
	<path d="m608.06491 209.44786v-8.06h2.46134v7.96c0 2.59867 1.34 3.97867 3.53866 3.97867 2.18 0 3.52-1.29867 3.52-3.87867v-8.06h2.46v7.93867c0 4.18-2.36 6.28-6.02 6.28-3.64 0-5.96-2.1-5.96-6.15867" fill="#ffffff"/>
	<path d="m628.86438 203.668h-4.44v-2.28h11.35867v2.28h-4.43867v11.71866h-2.48z" fill="#ffffff"/>
	<path d="m640.16385 209.44786v-8.06h2.46133v7.96c0 2.59867 1.34 3.97867 3.53867 3.97867 2.18 0 3.52-1.29867 3.52-3.87867v-8.06h2.46v7.93867c0 4.18-2.36 6.28-6.02 6.28-3.64 0-5.96-2.1-5.96-6.15867" fill="#ffffff"/>
	<path d="m663.84345 209.3672h-3.9v3.84h4.08c1.68 0 2.7-.66 2.7-1.92v-.04c0-1.18-.94-1.88-2.88-1.88m2.1-4.02c0-1.1-.88-1.78-2.46134-1.78h-3.53866v3.72h3.36c1.58 0 2.64-.61867 2.64-1.89867zm-8.42-3.95867h6.28c1.6 0 2.86.44 3.66 1.23867.62.62.94 1.38.94 2.32133v.0387c0 1.68133-.96 2.58-2 3.12 1.63866.56133 2.78 1.5 2.78 3.4v.04c0 2.5-2.06 3.84-5.18 3.84h-6.48z" fill="#ffffff"/>
	<path d="m680.02318 208.3268c1.76 0 2.88-.91867 2.88-2.34v-.0387c0-1.5-1.07867-2.32-2.9-2.32h-3.57867v4.69867zm-6.06-6.93867h6.24c1.76 0 3.14.52 4.04 1.4.74.76 1.16 1.79867 1.16 3.01867v.0413c0 2.29867-1.38 3.67867-3.32 4.23867l3.78 5.3h-2.92l-3.44-4.87867h-3.07867v4.87867h-2.46133z" fill="#ffffff"/>
	<path d="m701.86305 208.42706v-.04c0-2.71866-1.98-4.98-4.76-4.98s-4.71867 2.22-4.71867 4.94v.04c0 2.72 1.97867 4.96 4.75867 4.96s4.72-2.2 4.72-4.92m-12.06 0v-.04c0-3.93866 3.04-7.24 7.34-7.24s7.3 3.26 7.3 7.2v.04c0 3.94-3.04 7.24-7.34 7.24s-7.3-3.26-7.3-7.2" fill="#ffffff"/>
	<path d="m738.23544 210.91013 8.032-6.132c1.99467-1.56267 2.79067-2.57467 2.79067-3.86267 0-1.37866-.95067-2.20666-2.42133-2.20666-1.44134 0-2.576.85733-4.26267 2.78933l-4.016-3.34133c2.29867-2.97467 4.59867-4.6 8.73867-4.6 4.69066 0 7.90933 2.79066 7.90933 6.83733v.0613c0 3.43334-1.77867 5.212-4.96533 7.512l-3.68 2.576h8.86v4.84267h-16.98534z" fill="#ffffff"/>
	<path d="m775.18464 204.71746v-.0613c0-3.43333-1.59333-5.91733-3.98533-5.91733-2.36133 0-3.92533 2.42266-3.92533 5.856v.0613c0 3.43333 1.596 5.88667 3.98666 5.88667 2.392 0 3.924-2.42134 3.924-5.82534m-13.88933 0v-.0613c0-6.07067 3.86267-11.16 9.96533-11.16 6.10134 0 9.90267 5.02667 9.90267 11.09867v.0613c0 6.07067-3.83333 11.16-9.964 11.16-6.10133 0-9.904-5.028-9.904-11.09867" fill="#ffffff"/>
	<path d="m790.64304 199.2904-3.61733.85866-1.13467-4.6 6.284-1.77733h4.32534v21.61467h-5.85734z" fill="#ffffff"/>
	<path d="m815.42158 201.09893v-.0613c0-1.65467-1.196-2.94267-3.06667-2.94267-1.86933 0-3.00533 1.256-3.00533 2.91333v.0613c0 1.624 1.19733 2.82 3.06666 2.82 1.86934 0 3.00534-1.22667 3.00534-2.79067m-.0613 5.30533c-1.31866 1.22534-2.88266 1.74667-4.56933 1.74667-4.13867 0-7.204-2.60533-7.204-6.80533v-.0613c0-4.72266 3.648-7.788 8.55333-7.788 3.128 0 4.968.85734 6.592 2.48267 1.564 1.564 2.576 4.01733 2.576 7.972v.0613c0 6.99067-3.496 11.804-9.904 11.804-3.21866 0-5.51733-1.012-7.51066-2.544l2.78933-4.10933c1.50267 1.16533 2.91333 1.71733 4.6 1.71733 3.12667 0 3.924-2.75866 4.07733-4.476" fill="#ffffff"/>
	<path d="m348.92039 162.98693h15.33733v3.29734h-11.716v5.62266h10.392v3.29733h-10.392v8.39067h-3.62133z" fill="#ffffff"/>
	<path d="m372.85519 162.98653h3.62133v20.608h-3.62133z" fill="#ffffff"/>
	<path d="m386.39825 162.98693h3.62134v17.31067h10.83333v3.29733h-14.45467z" fill="#ffffff"/>
	<path d="m409.03759 162.98693h3.85733l6.27067 9.74533 6.27066-9.74533h3.856v20.608h-3.62v-14.77867l-6.50666 9.71467h-.11734l-6.448-9.656v14.72h-3.56266z" fill="#ffffff"/>
	<path d="m452.25758 162.98693h15.33734v3.29734h-11.716v5.62266h10.392v3.29733h-10.392v8.39067h-3.62134z" fill="#ffffff"/>
	<path d="m475.98678 162.98693h15.27867v3.23867h-11.65733v5.35733h10.33333v3.23867h-10.33333v5.53466h11.804v3.23867h-15.42534z" fill="#ffffff"/>
	<path d="m498.74465 180.5924 2.17867-2.59067c1.972 1.70667 3.97333 2.67867 6.50666 2.67867 2.236 0 3.64934-1.06 3.64934-2.59067v-.0587c0-1.472-.824-2.26666-4.65067-3.14933-4.38667-1.06-6.86-2.35733-6.86-6.15333v-.0587c0-3.53333 2.944-5.97733 7.03733-5.97733 3.00134 0 5.388.91333 7.47734 2.592l-1.94267 2.736c-1.856-1.38267-3.70933-2.12-5.59333-2.12-2.12 0-3.35734 1.09067-3.35734 2.444v.0587c0 1.59066.94267 2.29733 4.916 3.23866 4.35734 1.06 6.596 2.62133 6.596 6.03467v.06c0 3.856-3.03333 6.15333-7.36133 6.15333-3.14933 0-6.124-1.09067-8.596-3.29733" fill="#ffffff"/>
	<path d="m528.00892 166.34373h-6.536v-3.35733h16.72266v3.35733h-6.536v17.25067h-3.65066z" fill="#ffffff"/>
	<path d="m546.64452 162.98653h3.62266v20.608h-3.62266z" fill="#ffffff"/>
	<path d="m558.42158 162.98693h4.004l6.21067 15.83867 6.184-15.83867h3.91466l-8.53733 20.75467h-3.20933z" fill="#ffffff"/>
	<path d="m596.22371 175.41013-3.56266-8.24266-3.532 8.24266zm-5.18133-12.57066h3.356l9.068 20.75599h-3.82667l-2.09066-4.976h-9.744l-2.12 4.976h-3.71067z" fill="#ffffff"/>
	<path d="m611.41518 162.98693h3.62133v17.31067h10.83467v3.29733h-14.456z" fill="#ffffff"/>
	<path d="m641.30838 170.64453h2.104l6.924 8.936v-8.936h2.23333v12.924h-1.9l-7.12666-9.19333v9.19333h-2.23467z" fill="#ffffff"/>
	<path d="m656.94851 170.64386h2.27067v12.924h-2.27067z" fill="#ffffff"/>
	<path d="m666.77185 172.75h-4.09867v-2.10534h10.488v2.10534h-4.1v10.81866h-2.28933z" fill="#ffffff"/>
	<path d="m676.48411 170.64453h9.58267v2.03067h-7.31067v3.36133h6.48v2.03067h-6.48v3.47066h7.40267v2.03067h-9.67467z" fill="#ffffff"/>
	<path d="m695.37478 177.052c1.62533 0 2.65733-.85067 2.65733-2.16v-.0373c0-1.38533-.996-2.14266-2.676-2.14266h-3.304v4.34zm-5.59467-6.408h5.76c1.62534 0 2.89867.48133 3.73067 1.29333.68267.7 1.07067 1.66133 1.07067 2.788v.036c0 2.124-1.27334 3.39733-3.06534 3.916l3.48934 4.892h-2.696l-3.17467-4.50533h-2.84267v4.50533h-2.272z" fill="#ffffff"/>
	<path d="m711.38518 166.71227 2.03066.88533-2.36266 1.792h-1.736zm3.23066 10.43199v-.0373c0-2.51067-1.828-4.59733-4.39466-4.59733-2.56667 0-4.35733 2.04933-4.35733 4.56133v.036c0 2.512 1.82799 4.57867 4.39466 4.57867s4.35733-2.03067 4.35733-4.54134m-11.13333 0v-.0373c0-3.63733 2.80667-6.684 6.776-6.684s6.73867 3.00933 6.73867 6.648v.036c0 3.636-2.80534 6.684-6.776 6.684-3.96934 0-6.73867-3.00933-6.73867-6.64667" fill="#ffffff"/>
	<path d="m720.80318 170.64386h2.272v12.924h-2.272z" fill="#ffffff"/>
	<path d="m733.52451 176.81053h5.46667v2.19733h-5.46667z" fill="#ffffff"/>
	<path d="m755.14824 178.01173h-3.6v3.544h3.76534c1.55066 0 2.49333-.60933 2.49333-1.772v-.036c0-1.09067-.868-1.736-2.65867-1.736m1.93867-3.71067c0-1.016-.812-1.644-2.27067-1.644h-3.268v3.43467h3.10134c1.45866 0 2.43733-.572 2.43733-1.75467zm-7.77333-3.656h5.79733c1.47733 0 2.64.40534 3.37867 1.144.57333.57334.868 1.27467.868 2.14134v.0387c0 1.55067-.88667 2.38134-1.84667 2.88 1.51333.516 2.56667 1.384 2.56667 3.13734v.0387c0 2.30667-1.90134 3.544-4.78267 3.544h-5.98133z" fill="#ffffff"/>
	<path d="m769.16384 177.052c1.62534 0 2.65867-.85067 2.65867-2.16v-.0373c0-1.38533-.99733-2.14266-2.67733-2.14266h-3.304v4.34zm-5.59333-6.408h5.76c1.624 0 2.89867.48133 3.72933 1.29333.68267.7 1.07067 1.66133 1.07067 2.788v.036c0 2.124-1.27333 3.39733-3.064 3.916l3.488 4.892h-2.696l-3.17467-4.50533h-2.84266v4.50533h-2.27067z" fill="#ffffff"/>
	<path d="m785.67158 178.43613-2.23467-5.16933-2.21467 5.16933zm-3.25067-7.884h2.10667l5.68533 13.01733h-2.4l-1.31067-3.12h-6.11066l-1.32934 3.12h-2.32666z" fill="#ffffff"/>
	<path d="m792.26544 181.68613 1.36667-1.62533c1.23733 1.07066 2.49333 1.68 4.08133 1.68 1.404 0 2.28934-.664 2.28934-1.624v-.0373c0-.92266-.51734-1.42133-2.91734-1.976-2.75066-.66533-4.30266-1.47733-4.30266-3.85866v-.036c0-2.21734 1.84533-3.74934 4.412-3.74934 1.884 0 3.37866.57334 4.692 1.62534l-1.21867 1.71733c-1.164-.868-2.32667-1.32933-3.508-1.32933-1.33067 0-2.10533.684-2.10533 1.532v.0373c0 .99733.58933 1.44 3.08266 2.03067 2.73334.66533 4.136 1.64266 4.136 3.78533v.036c0 2.42-1.90266 3.86-4.616 3.86-1.97466 0-3.84-.684-5.392-2.068" fill="#ffffff"/>
	<path d="m806.00451 170.64386h2.272v12.924h-2.272z" fill="#ffffff"/>
	<path d="m812.65344 170.64453h2.27067v10.85733h6.79467v2.06667h-9.06534z" fill="#ffffff"/>
	<path d="m28.714662 204.08466c2.474667 0 4.416-.448 5.822666-1.34666 1.408-.89734 2.110667-2.292 2.110667-4.184v-.14667c0-1.69733-.654667-3.044-1.964-4.03867-1.310667-.99466-3.421333-1.492-6.332-1.492h-12.957333v11.208zm-2.984-20.52666c2.474667 0 4.44-.42267 5.896-1.27334 1.454666-.84666 2.182666-2.22 2.182666-4.112v-.14533c0-1.69733-.629333-2.996-1.891999-3.89467-1.262667-.89733-3.081334-1.34666-5.458667-1.34666h-11.064v10.772zm-21.2546661-20.59733h23.6133331c5.861333 0 10.293333 1.504 13.297333 4.51333 2.324 2.328 3.486666 5.216 3.486666 8.66133v.144c0 1.456-.181333 2.74267-.542666 3.85867-.362667 1.11733-.844 2.124-1.446667 3.02133s-1.301333 1.68533-2.096 2.36533c-.796.68-1.653333 1.26134-2.568 1.74667 2.945333 1.11733 5.265333 2.632 6.956 4.54933 1.690666 1.91734 2.536 4.57334 2.536 7.96934v.14666c0 2.32934-.448 4.36667-1.344 6.11467-.897333 1.74533-2.18 3.20133-3.850667 4.36667-1.672 1.164-3.682666 2.03733-6.032 2.62-2.350666.58266-4.953333.87333-7.810666.87333h-24.1986661z" fill="#ffffff"/>
	<path d="m101.42826 187.70826c2.76533 0 4.888-.65466 6.36933-1.96666 1.48-1.30934 2.21867-3.056 2.21867-5.23867v-.14667c0-2.42533-.776-4.24533-2.32933-5.45866-1.552-1.21334-3.71067-1.82-6.476-1.82h-11.13867v14.63066zm-22.563999-24.74799h23.291999c6.45333 0 11.40267 1.72266 14.84933 5.168 2.91067 2.91199 4.36667 6.79466 4.36667 11.64666v.144c0 4.12667-1.008 7.48667-3.02133 10.08267-2.01334 2.596-4.64667 4.50133-7.896 5.71333l12.44533 18.196h-13.10133l-10.917336-16.304h-8.809334v16.304h-11.207999z" fill="#ffffff"/>
	<path d="m153.83386 162.9612h11.20933v50.95066h-11.20933z" fill="#ffffff"/>
	<path d="m223.49199 214.7852c-3.73733 0-7.20533-.68-10.408-2.03734-3.20267-1.35866-5.968-3.21466-8.29733-5.56933-2.32934-2.35333-4.15067-5.132-5.46-8.33333-1.30934-3.20267-1.96534-6.624-1.96534-10.26267v-.14667c0-3.63866.656-7.048 1.96534-10.22666 1.30933-3.17734 3.13066-5.968 5.46-8.37067 2.32933-2.40266 5.11866-4.29466 8.36933-5.67733 3.252-1.38267 6.84267-2.07333 10.772-2.07333 2.37733 0 4.54933.19333 6.516.58133 1.964.38933 3.748.92133 5.35067 1.60133 1.6.68 3.08 1.504 4.43866 2.476 1.35734.96934 2.62 2.03734 3.78534 3.20133l-7.13334 8.22534c-1.98933-1.79467-4.016-3.20267-6.07866-4.22134-2.06267-1.02-4.37867-1.528-6.95067-1.528-2.136 0-4.11333.412-5.932 1.236-1.82.82534-3.384 1.96534-4.69467 3.42134-1.31066 1.45466-2.32933 3.14266-3.05733 5.05866-.728 1.91734-1.092 3.96667-1.092 6.15067v.14533c0 2.184.364 4.24667 1.092 6.18667.728 1.94133 1.73467 3.63867 3.02 5.09467s2.83867 2.60933 4.66 3.45866c1.81867.84934 3.82133 1.27334 6.004 1.27334 2.912 0 5.37467-.53334 7.388-1.60134 2.01333-1.06666 4.01467-2.52266 6.00533-4.368l7.13334 7.20667c-1.30934 1.408-2.66934 2.66933-4.07734 3.78533-1.40666 1.11734-2.948 2.07334-4.62 2.87467-1.67466.8-3.50666 1.408-5.49733 1.82-1.98933.412-4.22133.61867-6.696.61867" fill="#ffffff"/>
	<path d="m293.36706 214.63933c-3.88134 0-7.69067-.668-11.42667-2.00133-3.73733-1.33467-7.13333-3.38534-10.19067-6.15067l6.624-7.93333c2.32934 1.89066 4.71867 3.396 7.16934 4.512 2.45066 1.11733 5.13066 1.67466 8.04266 1.67466 2.32934 0 4.13734-.424 5.42267-1.27466 1.28533-.848 1.92933-2.024 1.92933-3.52934v-.14666c0-.728-.13466-1.36934-.40133-1.928-.268-.55734-.78-1.08-1.53333-1.56534-.75334-.484-1.8-.96933-3.13734-1.456-1.33866-.484-3.07866-.99333-5.21866-1.528-2.58-.63066-4.91467-1.33333-7.00667-2.11066-2.092-.776-3.868-1.73467-5.32667-2.87467-1.46133-1.14-2.59066-2.55867-3.39466-4.25867-.80267-1.69733-1.204-3.808-1.204-6.33333v-.144c0-2.32933.43333-4.428 1.30133-6.29733.868-1.86667 2.08533-3.48133 3.652-4.84 1.56667-1.35733 3.43867-2.40133 5.61467-3.12933 2.172-.728 4.572-1.092 7.192-1.092 3.736 0 7.16933.55733 10.3 1.67333 3.12933 1.11733 6.00533 2.71867 8.62399 4.80533l-5.82266 8.44267c-2.28133-1.552-4.51333-2.77734-6.696-3.676-2.184-.89734-4.368-1.34667-6.55067-1.34667-2.184 0-3.82266.42533-4.91333 1.27333-1.092.85067-1.63733 1.90534-1.63733 3.16667v.14667c0 .82533.15866 1.54.47333 2.14666.316.60667.888 1.15334 1.716 1.63734.82533.48666 1.95733.94533 3.39333 1.384 1.43467.436 3.248.94533 5.43734 1.528 2.57866.68 4.876 1.444 6.89733 2.29333 2.01867.84933 3.72133 1.868 5.108 3.056 1.38666 1.18933 2.432 2.584 3.13866 4.18533.704 1.60134 1.05867 3.51867 1.05867 5.75067v.14533c0 2.524-.45867 4.76667-1.37467 6.732-.916 1.96667-2.19333 3.616-3.83333 4.95067-1.63866 1.33467-3.59466 2.35467-5.868 3.056-2.272.70267-4.792 1.056-7.55866 1.056" fill="#ffffff"/>
	<path d="m91.420394 352.27079c-13.586667 0-24.601333-11.01466-24.601333-24.60266v-73.80667c0-13.58666 11.014666-24.60133 24.601333-24.60133 13.586666 0 24.601336 11.01467 24.601336 24.60133v73.80667c0 13.588-11.01467 24.60266-24.601336 24.60266" fill="#284693"/>
	<path d="m158.23946 327.66799c-13.58667 0-24.60267-11.01466-24.60267-24.60133v-49.204c0-13.588 11.016-24.60266 24.60267-24.60266s24.60133 11.01466 24.60133 24.60266v49.204c0 13.58667-11.01466 24.60133-24.60133 24.60133" fill="#f9b233"/>
	<path d="m225.05706 303.06639c-13.58667 0-24.60134-11.01466-24.60134-24.60133v-24.60266c0-13.588 11.01467-24.60134 24.60134-24.60134 13.58666 0 24.60133 11.01334 24.60133 24.60134v24.60266c0 13.58667-11.01467 24.60133-24.60133 24.60133" fill="#e6342a"/>
	<path d="m291.87612 278.4648c-13.58666 0-24.60266-11.016-24.60266-24.60267 0-13.588 11.016-24.60133 24.60266-24.60133 13.58667 0 24.60133 11.01333 24.60133 24.60133 0 13.58667-11.01466 24.60267-24.60133 24.60267" fill="#ffde00"/>
	<path d="m24.602662 376.87239c-13.586666 0-24.60266601-11.01466-24.60266601-24.60133v-98.40933c0-13.58667 11.01600001-24.60133 24.60266601-24.60133s24.601333 11.01466 24.601333 24.60133v98.40933c0 13.58667-11.014667 24.60133-24.601333 24.60133" fill="#009640"/>
	<path d="m225.05706 24.601602c13.58666 0 24.60133 11.014666 24.60133 24.601333v73.806665c0 13.58667-11.01467 24.60267-24.60133 24.60267-13.58667 0-24.60134-11.016-24.60134-24.60267v-73.806665c0-13.586667 11.01467-24.601333 24.60134-24.601333" fill="#e6342a"/>
	<path d="m158.23946 49.203068c13.58667 0 24.60133 11.014666 24.60133 24.602666v49.202666c0 13.588-11.01466 24.604-24.60133 24.604s-24.60267-11.016-24.60267-24.604v-49.202666c0-13.588 11.016-24.602666 24.60267-24.602666" fill="#f9b233"/>
	<path d="m91.420394 73.806001c13.586666 0 24.601336 11.014666 24.601336 24.601332v24.601337c0 13.588-11.01467 24.60266-24.601336 24.60266-13.586667 0-24.601333-11.01466-24.601333-24.60266v-24.601337c0-13.586666 11.014666-24.601332 24.601333-24.601332" fill="#284693"/>
	<path d="m24.602662 98.407467c13.586666 0 24.601333 11.014663 24.601333 24.601333 0 13.588-11.014667 24.60267-24.601333 24.60267s-24.60266601-11.01467-24.60266601-24.60267c-2.42e-9-13.58667 11.01600001-24.601333 24.60266601-24.601333" fill="#009640"/>
	<path d="m291.87612.0000025533299c13.58667 0 24.60133 11.01466645 24.60133 24.60133245v98.407995c0 13.58667-11.01466 24.60267-24.60133 24.60267-13.58666 0-24.60266-11.016-24.60266-24.60267v-98.407995c0-13.586666 11.016-24.60133245 24.60266-24.60133245" fill="#ffde00"/>
</svg>
